<?xml version="1.0" encoding="utf-8"?>
<svg viewBox="0 0 1100 300" width="1100" height="300" xmlns="http://www.w3.org/2000/svg">
  <path d="M 126.179 281.343 C 126.789 281.219 127.032 280.819 126.907 280.143 C 126.782 279.467 126.415 279.191 125.804 279.314 C 125.126 279.452 124.849 279.858 124.974 280.535 C 125.099 281.211 125.5 281.48 126.179 281.343 Z M 123.682 273.537 C 123.433 272.185 121.611 271.852 118.218 272.538 C 114.892 273.212 113.429 274.63 113.829 276.793 C 114.116 278.348 114.802 279.016 115.888 278.796 C 116.159 278.741 116.677 278.496 117.442 278.061 C 119.735 276.755 121.323 276.013 122.206 275.835 C 122.68 275.738 123.07 275.466 123.375 275.019 C 123.68 274.572 123.782 274.078 123.682 273.537 Z M 117.692 259.39 C 115.654 259.031 114.466 258.885 114.126 258.953 C 113.719 259.036 112.739 259.83 111.188 261.337 C 110.048 262.409 109.54 263.283 109.665 263.959 C 109.777 264.568 110.454 265.378 111.697 266.388 C 113.904 268.046 116.161 268.642 118.469 268.175 C 119.622 267.941 120.53 267.424 121.192 266.624 C 121.854 265.824 122.079 264.849 121.866 263.7 C 121.679 262.686 121.17 261.737 120.337 260.852 C 119.506 259.969 118.624 259.481 117.692 259.39 Z M 120.705 252.257 C 120.705 252.257 120.843 252.054 121.12 251.647 C 121.397 251.241 121.355 250.057 120.993 248.095 C 120.631 246.135 120.048 244.885 119.245 244.347 C 118.441 243.808 117.055 243.737 115.087 244.136 C 113.119 244.534 111.858 245.14 111.304 245.953 C 110.75 246.766 110.655 248.154 111.017 250.115 C 111.378 252.075 111.961 253.325 112.765 253.864 C 113.568 254.403 114.954 254.473 116.922 254.075 C 118.889 253.676 120.151 253.07 120.705 252.257 Z M 118.099 238.424 C 118.099 238.424 118.251 238.244 118.554 237.884 C 118.857 237.525 118.871 236.602 118.596 235.114 C 118.322 233.627 117.772 232.651 116.948 232.187 C 116.122 231.722 114.828 231.669 113.063 232.026 C 109.602 232.726 107.657 233.822 107.228 235.311 C 106.958 236.137 106.88 236.854 106.992 237.462 C 107.204 238.612 108.007 239.431 109.399 239.921 C 110.792 240.411 112.507 240.449 114.542 240.037 C 116.307 239.68 117.492 239.143 118.099 238.424 Z M 112.624 225.066 C 112.137 222.43 111.079 221.276 109.451 221.606 C 108.161 221.866 106.803 223.088 105.375 225.271 C 104.071 227.358 103.456 228.605 103.531 229.011 C 103.631 229.551 105.038 229.547 107.752 228.998 C 111.349 228.27 112.973 226.96 112.624 225.066 Z M 103.782 215.494 C 102.638 214.252 101.149 213.817 99.317 214.188 C 97.078 214.641 95.737 215.965 95.297 218.158 C 95.181 218.672 95.179 219.233 95.292 219.841 C 95.578 221.397 96.324 222.578 97.53 223.386 C 98.092 223.763 98.781 223.869 99.595 223.705 C 100.952 223.43 102.16 222.537 103.219 221.025 C 104.277 219.514 104.688 218.116 104.451 216.831 C 104.339 216.222 104.116 215.777 103.782 215.494 Z M 92.225 209.521 C 90.945 208.307 89.32 207.9 87.353 208.298 C 85.724 208.628 84.643 209.443 84.108 210.743 C 83.979 211.189 83.946 211.582 84.009 211.92 C 84.196 212.934 84.95 213.781 86.273 214.46 C 87.595 215.139 88.867 215.355 90.089 215.108 C 91.039 214.916 91.735 214.495 92.178 213.844 C 92.787 212.949 92.986 211.927 92.773 210.778 C 92.686 210.304 92.503 209.885 92.225 209.521 Z M 81.595 203.992 C 81.258 202.167 80.512 201.371 79.359 201.605 C 78.205 201.838 77.016 203.025 75.792 205.166 C 75.134 206.562 74.85 207.496 74.937 207.97 C 75.049 208.578 75.522 209.043 76.356 209.366 C 76.894 209.608 77.57 209.647 78.385 209.482 C 79.47 209.262 80.339 208.63 80.991 207.586 C 81.643 206.542 81.845 205.344 81.595 203.992 Z M 71.792 200.085 C 71.883 199.435 71.879 198.84 71.779 198.299 C 71.604 197.352 71.144 196.954 70.397 197.106 C 69.447 197.298 68.727 197.97 68.235 199.121 C 67.744 200.272 67.604 201.423 67.816 202.572 C 68.016 203.654 68.492 204.329 69.246 204.598 C 70.685 205.148 71.376 205.079 71.319 204.389 C 71.269 204.118 71.427 202.683 71.792 200.085 Z M 65.651 194.278 C 66.372 193.221 66.594 191.949 66.32 190.461 C 66.232 189.988 66.136 189.657 66.031 189.468 C 65.727 188.968 65.474 188.739 65.27 188.779 C 64.727 188.889 64.359 189.946 64.165 191.949 C 64.101 193.505 64.1 194.452 64.162 194.791 C 64.237 195.196 64.376 195.378 64.58 195.337 C 64.851 195.282 65.209 194.929 65.651 194.278 Z M 163.962 156.501 C 162.841 154.623 160.483 154.048 156.886 154.776 C 153.492 155.463 149.942 157.111 146.234 159.72 C 142.527 162.328 139.844 165.238 138.183 168.45 C 136.997 170.794 134.922 176.334 131.958 185.069 C 130.455 189.511 129.085 192.769 127.848 194.843 C 126.612 196.917 125.18 198.118 123.551 198.448 C 121.583 198.846 119.045 198.063 115.936 196.097 C 112.828 194.13 108.229 190.572 102.138 185.423 C 94.689 179.004 89.582 174.988 86.82 173.373 C 85.424 172.674 83.776 172.516 81.875 172.901 C 78.143 173.656 75.308 175.842 73.371 179.461 C 72.061 181.9 71.581 184.066 71.93 185.959 C 72.355 188.258 74.153 190.752 77.325 193.442 C 80.496 196.132 85.762 199.677 93.122 204.079 C 99.474 207.984 104.146 210.983 107.137 213.079 C 110.129 215.174 112.894 217.665 115.433 220.553 C 117.973 223.44 119.765 226.374 120.807 229.354 C 121.85 232.334 122.852 236.428 123.813 241.634 C 124.1 243.189 124.625 246.414 125.387 251.31 C 126.35 257.286 126.962 260.985 127.224 262.405 C 128.135 267.341 128.999 270.778 129.814 272.717 C 130.629 274.656 131.72 276.084 133.085 276.999 C 135.027 278.36 136.337 278.971 137.015 278.834 C 137.761 278.683 138.929 277.57 140.517 275.495 C 142.259 273.109 143.265 266.067 143.535 254.37 C 143.804 242.673 143.153 232.565 141.581 224.046 C 140.458 217.961 140.527 212.897 141.787 208.855 C 143.047 204.812 146.695 197.973 152.731 188.335 C 156.853 181.68 159.981 175.647 162.115 170.235 C 164.249 164.824 165.072 160.799 164.585 158.162 C 164.461 157.487 164.253 156.933 163.962 156.501 Z M 146.72 154.624 C 149.531 153.073 153.176 151.845 157.655 150.938 L 159.284 150.609 C 162.511 150.166 164.584 150.237 165.501 150.823 C 166.419 151.409 167.322 153.155 168.21 156.061 C 168.341 156.386 168.475 156.92 168.611 157.663 C 169.286 161.314 168.604 165.818 166.565 171.176 C 164.527 176.533 160.709 183.881 155.111 193.219 C 151.278 199.536 148.727 204.312 147.459 207.55 C 146.191 210.787 145.545 214.056 145.521 217.358 C 145.496 220.659 146.102 225.656 147.338 232.349 C 149.184 242.356 149.492 247.835 148.26 248.786 C 147.779 249.233 147.485 250.309 147.377 252.015 C 147.269 253.72 147.39 255.519 147.739 257.412 C 149.112 264.849 148.048 271.289 144.547 276.731 C 141.046 282.174 135.732 285.617 128.607 287.059 C 125.213 287.745 122.532 287.902 120.562 287.529 C 118.592 287.156 116.396 286.127 113.973 284.443 C 111.859 282.907 110.389 281.522 109.563 280.287 C 108.737 279.051 108.049 276.946 107.5 273.971 C 107.038 271.469 106.429 266.648 105.674 259.506 C 105.103 254.502 104.567 250.648 104.068 247.944 C 103.12 242.805 101.694 238.605 99.79 235.343 C 97.885 232.081 95.417 229.197 92.385 226.69 C 89.352 224.183 84.359 220.686 77.407 216.201 C 69.985 211.462 65.341 208.141 63.476 206.239 C 61.612 204.336 60.337 201.526 59.65 197.808 C 58.764 193.007 59.32 188.389 61.317 183.952 C 63.314 179.515 66.507 175.835 70.895 172.913 C 74.957 170.127 78.176 168.494 80.551 168.014 C 83.265 167.464 86.121 168.061 89.118 169.804 C 92.115 171.547 96.476 174.96 102.202 180.044 C 106.407 183.752 110.308 186.961 113.905 189.67 C 117.502 192.378 119.739 193.818 120.616 193.992 C 120.765 194.032 120.974 194.025 121.245 193.97 C 123.146 193.585 125.308 189.851 127.732 182.768 C 132.844 168.127 139.173 158.746 146.72 154.624 Z" style="fill: none; paint-order: stroke; stroke-linejoin: bevel; stroke-opacity: 0.44; stroke-width: 0.995297px; text-transform: uppercase; white-space: pre; vector-effect: non-scaling-stroke; stroke: rgb(0, 199, 255);" transform="matrix(0.985333, -0.170641, 0.170641, 0.985333, -35.701767, 22.674368)"/>
  <path d="M 205.381 233.152 C 205.043 232.158 204.31 231.345 203.181 230.713 C 202.053 230.08 200.859 229.753 199.601 229.73 C 198.488 229.757 197.795 229.79 197.522 229.83 C 196.084 230.043 195.441 230.73 195.593 231.89 C 195.61 232.026 195.74 232.494 195.984 233.292 C 196.322 234.286 197.058 235.115 198.191 235.782 C 199.324 236.449 200.52 236.794 201.778 236.816 C 202.891 236.79 203.584 236.757 203.857 236.716 C 205.295 236.503 205.938 235.817 205.786 234.657 C 205.76 234.452 205.625 233.95 205.381 233.152 Z M 202.53 221.68 C 202.361 220.384 200.466 219.76 196.846 219.81 C 196.358 219.813 195.738 219.87 194.985 219.982 C 193.821 220.154 193.027 220.48 192.601 220.96 C 192.176 221.441 192.03 222.193 192.163 223.217 C 192.287 224.172 192.615 224.819 193.147 225.157 C 193.68 225.496 194.493 225.584 195.588 225.421 C 196.409 225.3 197.054 225.17 197.524 225.03 C 198.935 224.612 200.137 224.069 201.131 223.4 C 202.126 222.731 202.592 222.158 202.53 221.68 Z M 204.742 208.936 C 204.485 206.957 202.338 206.267 198.3 206.865 C 194.263 207.464 192.373 208.752 192.63 210.731 C 192.896 212.779 195.048 213.503 199.086 212.904 C 203.123 212.306 205.008 210.983 204.742 208.936 Z M 204.297 195.856 C 203.152 194.565 201.793 194.036 200.219 194.269 C 198.508 194.523 196.617 195.533 194.545 197.301 C 192.456 198.933 191.487 200.329 191.637 201.489 C 191.824 202.921 193.388 203.42 196.331 202.984 C 198.794 202.619 200.856 201.844 202.515 200.659 C 204.174 199.474 204.924 198.267 204.764 197.039 C 204.711 196.629 204.555 196.235 204.297 195.856 Z M 205.065 187.291 C 205.167 186.997 205.204 186.748 205.178 186.543 C 205.08 185.793 204.141 185.55 202.362 185.813 C 200.104 186.148 197.618 187.142 194.904 188.797 C 193.478 189.634 192.783 190.189 192.818 190.462 C 192.863 190.803 194.459 190.741 197.606 190.274 L 198.53 190.137 C 200.105 189.904 201.534 189.501 202.82 188.928 C 204.105 188.354 204.854 187.809 205.065 187.291 Z M 208.617 175.183 C 208.413 173.614 207.182 172.996 204.924 173.33 C 203.007 173.614 200.348 174.356 196.947 175.556 C 195.546 176.042 194.503 176.736 193.818 177.637 C 193.133 178.539 192.848 179.433 192.963 180.32 C 193.052 181.003 193.438 181.554 194.12 181.975 C 194.803 182.395 195.692 182.524 196.787 182.362 C 200.139 181.865 202.996 180.902 205.356 179.474 C 207.716 178.046 208.803 176.616 208.617 175.183 Z M 210.25 162.003 C 209.251 160.76 207.897 160.265 206.186 160.519 C 204.544 160.762 202.297 161.721 199.446 163.395 C 196.595 165.071 195.253 166.556 195.422 167.852 C 195.617 169.354 197.563 169.831 201.258 169.283 C 204.132 168.857 206.487 168.056 208.322 166.88 C 210.156 165.704 210.993 164.501 210.834 163.273 C 210.763 162.727 210.568 162.304 210.25 162.003 Z M 213.729 150.949 C 214.287 149.336 214.539 148.325 214.486 147.916 C 214.388 147.165 213.347 146.937 211.363 147.231 C 210.336 147.383 209.036 147.976 207.461 149.009 C 205.887 150.042 204.52 151.201 203.362 152.486 L 199.044 157.091 L 205.537 156.337 C 209.985 155.677 212.716 153.881 213.729 150.949 Z M 243.457 138.196 C 240.136 136.253 237.175 135.475 234.575 135.861 C 232.521 136.165 230.228 137.305 227.695 139.28 C 224.728 141.667 222.522 144.55 221.078 147.93 C 219.635 151.308 217.657 158.087 215.145 168.267 C 209.265 192.232 207.204 210.971 208.962 224.483 C 209.93 231.921 212.004 237.143 215.185 240.149 C 216.535 241.41 218.063 242.436 219.77 243.226 C 221.477 244.016 222.879 244.33 223.973 244.168 C 226.3 243.823 228.54 240.935 230.693 235.504 C 232.846 230.071 233.981 224.321 234.098 218.252 C 234.244 214.544 234.901 211.56 236.072 209.3 C 237.243 207.04 238.718 205.777 240.497 205.514 C 242.344 205.24 244.223 206.006 246.132 207.809 C 248.822 210.262 251.789 215.109 255.032 222.349 C 259.236 231.603 263.869 235.855 268.933 235.104 C 270.507 234.871 272.121 234.145 273.776 232.926 C 275.491 231.628 276.465 230.005 276.7 228.058 C 276.935 226.11 276.739 222.191 276.112 216.302 C 275.843 213.699 275.43 210.248 274.87 205.949 C 273.547 195.781 271.017 185.444 267.279 174.939 C 264.494 166.935 260.771 159.366 256.112 152.231 C 251.452 145.097 247.234 140.418 243.457 138.196 Z M 219.108 136.797 C 223.101 134.257 228.075 132.546 234.029 131.664 C 238.476 131.004 241.909 131.121 244.328 132.015 C 247.397 133.091 251.807 137.775 257.559 146.069 C 263.312 154.363 267.687 162.253 270.683 169.738 C 275.386 181.77 278.746 195.532 280.761 211.022 C 281.96 220.235 282.058 226.62 281.056 230.177 C 279.288 236.421 275.598 239.959 269.987 240.791 C 267.934 241.095 265.935 241.008 263.99 240.531 C 262.044 240.055 260.11 238.725 258.187 236.541 C 256.264 234.356 253.972 230.818 251.313 225.926 C 246.101 216.96 243.051 212.543 242.161 212.675 C 241.067 212.837 239.975 216.512 238.887 223.698 C 238.32 226.843 237.465 230.187 236.321 233.73 C 235.178 237.273 234.003 240.038 232.796 242.025 C 229.655 247.36 225.552 250.403 220.488 251.153 C 215.766 251.853 210.265 250.582 203.984 247.339 C 197.977 244.057 194.444 241.833 193.386 240.668 C 191.983 238.998 190.317 235.576 188.389 230.402 C 186.46 225.227 185.309 221.207 184.937 218.341 C 184.777 217.112 184.816 216.342 185.054 216.028 C 186.278 214.177 186.977 201.588 187.151 178.26 C 187.001 175.5 187.351 173.362 188.199 171.845 C 189 171.031 189.227 169.293 188.881 166.632 C 188.552 164.106 191.129 159.377 196.609 152.444 C 202.089 145.511 206.197 141.841 208.934 141.435 C 212.457 140.635 215.848 139.089 219.108 136.797 Z" style="fill: none; paint-order: stroke; stroke-linejoin: bevel; stroke-opacity: 0.44; stroke-width: 0.995297px; text-transform: uppercase; white-space: pre; vector-effect: non-scaling-stroke; stroke: rgb(0, 199, 255);" transform="matrix(0.985333, -0.170641, 0.170641, 0.985333, -29.22057, 42.614555)"/>
  <path d="M 299.709 206.004 C 300.02 205.559 300.027 205.212 299.73 204.964 C 299.433 204.716 298.907 204.629 298.151 204.703 C 297.394 204.776 296.889 204.963 296.635 205.265 C 296.382 205.566 296.443 205.906 296.819 206.285 C 297.836 206.878 298.8 206.784 299.709 206.004 Z M 295.711 198.816 C 295.602 197.443 293.828 196.924 290.389 197.258 C 287.018 197.586 285.387 198.436 285.496 199.809 C 285.539 200.358 286.057 200.775 287.05 201.059 C 288.043 201.343 289.261 201.415 290.706 201.275 C 292.151 201.134 293.357 200.827 294.324 200.353 C 295.292 199.878 295.754 199.366 295.711 198.816 Z M 287.846 191.381 C 288.534 191.314 288.851 190.938 288.798 190.251 C 288.743 189.564 288.372 189.255 287.684 189.322 C 287.065 189.381 286.783 189.755 286.837 190.442 C 286.891 191.128 287.227 191.442 287.846 191.381 Z M 295.697 155.123 C 295.94 154.684 295.932 154.356 295.672 154.139 C 295.413 153.922 294.904 153.85 294.147 153.924 C 293.391 153.997 292.902 154.166 292.68 154.43 C 292.458 154.693 292.501 155.018 292.809 155.403 C 293.826 155.996 294.789 155.902 295.697 155.123 Z M 291.383 143.917 C 291.264 142.407 290.785 141.381 289.945 140.84 C 289.105 140.298 287.688 140.125 285.693 140.319 C 282.735 140.606 281.305 141.368 281.402 142.604 C 281.413 142.741 281.589 143.209 281.929 144.006 C 282.949 146.398 283.467 147.697 283.483 147.903 C 283.527 148.452 284.89 148.596 287.573 148.336 C 290.324 148.068 291.595 146.595 291.383 143.917 Z M 288.341 129.06 C 286.236 126.981 284.049 126.052 281.779 126.273 C 280.678 126.38 279.792 126.794 279.121 127.517 C 278.45 128.24 278.16 129.185 278.253 130.352 C 278.258 130.421 278.286 130.556 278.337 130.759 C 278.387 130.961 278.418 131.131 278.429 131.269 C 278.765 132.897 279.452 134.128 280.488 134.961 C 281.524 135.794 282.73 136.144 284.106 136.01 C 285.481 135.877 286.888 135.256 288.326 134.147 C 289.568 133.196 290.162 132.377 290.108 131.691 C 290.059 131.072 289.47 130.196 288.341 129.06 Z M 291.501 120.346 C 291.387 118.904 290.47 117.609 288.751 116.462 C 287.032 115.314 285.416 114.814 283.902 114.961 C 282.939 115.055 282.278 115.465 281.919 116.192 C 281.688 116.768 281.585 117.228 281.612 117.571 C 281.726 119.013 282.581 120.417 284.18 121.784 C 285.778 123.151 287.368 123.758 288.951 123.604 C 289.776 123.523 290.424 123.166 290.893 122.532 C 291.363 121.899 291.566 121.17 291.501 120.346 Z M 292.679 108.918 C 290.65 107.801 289.086 107.296 287.985 107.402 C 286.953 107.503 286.489 108.205 286.592 109.51 C 286.668 110.471 287.374 111.302 288.712 112.003 C 290.049 112.703 291.371 112.989 292.678 112.862 C 293.504 112.782 294.141 112.513 294.59 112.054 C 294.717 111.903 294.767 111.656 294.74 111.313 C 294.658 110.283 293.972 109.484 292.679 108.918 Z M 299.277 104.229 C 299.91 103.476 300.197 102.721 300.138 101.966 C 300.078 101.211 299.718 100.606 299.059 100.151 C 298.399 99.696 297.588 99.516 296.625 99.609 C 295.662 99.702 294.821 100.027 294.102 100.581 C 292.865 101.601 292.266 102.351 292.304 102.832 C 292.342 103.312 293.049 103.935 294.426 104.701 C 295.37 105.232 296.288 105.454 297.183 105.367 C 298.008 105.286 298.706 104.907 299.277 104.229 Z M 347.165 91.791 C 341.881 90.712 336.694 90.421 331.604 90.916 C 321.285 91.919 312.88 95.884 306.39 102.812 C 299.901 109.739 296.692 118.492 296.763 129.071 C 296.736 131.357 296.787 133.325 296.917 134.973 C 297.144 137.857 297.683 140.295 298.534 142.288 C 299.384 144.282 300.827 146.771 302.865 149.756 C 313.391 164.577 322.85 171.58 331.243 170.764 C 335.508 170.35 339.796 170.885 344.107 172.369 C 348.417 173.853 351.146 175.715 352.293 177.956 C 352.378 178.155 352.439 178.495 352.477 178.976 C 352.656 181.242 351.541 183.807 349.132 186.67 C 346.597 189.684 343.714 191.348 340.48 191.663 C 336.835 192.017 330.492 190.696 321.452 187.7 C 314.043 185.168 307.863 184.143 302.91 184.624 C 298.507 185.052 296.409 186.57 296.615 189.18 C 296.723 190.553 297.352 191.945 298.504 193.356 C 300.975 196.575 306.775 200.249 315.904 204.378 C 325.034 208.507 332.065 210.643 336.997 210.787 C 337.484 210.809 338.278 210.766 339.379 210.659 C 345.226 210.09 351.369 207.781 357.808 203.73 C 364.247 199.679 368.434 195.415 370.368 190.937 C 372.345 186.109 373.097 180.708 372.626 174.734 C 372.101 168.073 370.32 163.057 367.281 159.685 C 365.08 157.27 362.941 155.852 360.863 155.431 C 358.785 155.01 353.926 155.136 346.285 155.81 C 339.469 156.403 334.627 156.528 331.757 156.184 C 328.888 155.84 326.068 154.8 323.297 153.062 C 319.806 150.98 316.94 147.817 314.699 143.571 C 312.458 139.326 311.129 134.56 310.712 129.272 C 310.458 126.045 312.12 122.51 315.699 118.668 C 319.278 114.826 323.366 112.163 327.963 110.679 C 328.909 110.379 329.795 110.189 330.621 110.109 C 334.06 109.774 337.251 110.899 340.192 113.485 C 343.134 116.071 345.197 119.59 346.38 124.042 C 347.589 128.837 349.101 132.409 350.915 134.758 C 352.73 137.107 354.566 138.191 356.423 138.01 C 358.831 137.777 360.757 135.617 362.203 131.533 C 363.648 127.448 364.114 122.144 363.6 115.621 L 363.47 113.973 C 362.679 106.577 361.117 101.28 358.786 98.081 C 356.454 94.883 352.58 92.786 347.165 91.791 Z M 306.993 95.28 C 307.473 94.334 307.705 93.758 307.688 93.552 C 307.678 93.415 307.569 93.356 307.363 93.376 C 306.95 93.416 305.795 94.151 303.897 95.581 C 302.925 96.437 302.449 97.002 302.471 97.277 C 302.498 97.62 302.856 97.758 303.544 97.691 C 304.163 97.631 304.817 97.36 305.507 96.878 C 306.197 96.396 306.692 95.863 306.993 95.28 Z M 315.698 88.311 C 319.39 87.675 322.2 87.263 324.126 87.076 C 333.138 86.2 341.361 86.543 348.797 88.103 C 356.234 89.663 360.981 92.074 363.04 95.334 C 364.479 97.754 365.888 102.875 367.267 110.698 C 367.62 112.532 367.869 114.376 368.015 116.23 C 368.464 121.929 367.989 127.113 366.589 131.781 C 365.189 136.45 363.173 139.673 360.541 141.45 C 359.484 142.107 358.405 142.489 357.304 142.596 C 354.828 142.836 352.337 142.023 349.833 140.156 C 347.329 138.289 345.686 135.906 344.903 133.007 C 342.95 126.692 340.822 122.125 338.52 119.304 C 336.218 116.484 333.554 115.22 330.527 115.514 C 325.643 115.989 321.875 117.878 319.225 121.18 C 316.573 124.482 315.424 128.365 315.775 132.828 C 316.268 139.077 319.317 144.35 324.924 148.649 C 326.7 150.068 328.485 150.949 330.28 151.294 C 332.075 151.638 335.036 151.61 339.163 151.209 C 342.259 150.908 344.836 150.623 346.894 150.353 C 351.699 149.748 354.651 149.392 355.752 149.285 C 359.604 148.911 362.294 148.961 363.822 149.435 C 365.35 149.909 367.094 151.158 369.056 153.182 C 373.859 157.835 376.612 164.625 377.316 173.551 C 377.69 178.29 377.338 182.839 376.26 187.199 C 375.183 191.558 373.4 195.105 370.913 197.838 C 368.234 200.796 364.009 204.355 358.237 208.515 C 355.489 210.581 353.312 211.986 351.707 212.73 C 350.102 213.474 347.924 213.98 345.172 214.248 C 342.351 214.522 336.191 214.636 326.691 214.591 C 309.983 214.554 298.006 213.21 290.762 210.559 C 283.517 207.907 279.645 203.422 279.148 197.105 C 278.828 193.054 280.309 189.415 283.59 186.19 C 286.871 182.965 291.532 180.541 297.573 178.916 C 299.001 178.569 300.369 178.332 301.676 178.205 C 305.529 177.831 311.829 179.052 320.577 181.869 C 330.046 185.031 336.981 186.398 341.384 185.97 C 344.548 185.662 346.461 184.439 347.125 182.299 C 347.288 181.729 347.351 181.204 347.313 180.723 C 347.15 178.664 345.688 177.041 342.926 175.856 C 340.163 174.672 336.856 174.267 333.005 174.642 C 327.845 175.143 322.79 174.769 317.839 173.52 C 311.973 172.084 304.493 168.435 295.402 162.572 C 286.309 156.71 280.68 151.912 278.514 148.178 C 275.95 143.791 274.473 139.126 274.083 134.182 C 273.272 123.882 276.812 114.267 284.703 105.335 C 292.594 96.403 302.926 90.728 315.698 88.311 Z" style="fill: none; paint-order: stroke; stroke-linejoin: bevel; stroke-opacity: 0.44; stroke-width: 0.995297px; text-transform: uppercase; white-space: pre; vector-effect: non-scaling-stroke; stroke: rgb(0, 199, 255);" transform="matrix(0.985333, -0.170641, 0.170641, 0.985333, -20.921734, 57.7892)"/>
  <path d="M 399.933 184.826 C 400.201 184.538 400.33 184.187 400.32 183.774 C 400.301 183.016 399.92 182.256 399.176 181.495 C 398.431 180.734 397.68 180.37 396.921 180.403 C 396.3 180.43 395.824 180.727 395.493 181.293 C 395.296 181.716 395.202 182.099 395.211 182.444 C 395.232 183.271 395.578 183.981 396.249 184.573 C 396.92 185.164 397.669 185.442 398.496 185.406 C 399.117 185.379 399.596 185.186 399.933 184.826 Z M 398.151 171.655 C 398.112 170.07 397.756 168.964 397.085 168.337 C 396.413 167.712 395.284 167.433 393.697 167.502 C 391.352 167.604 390.2 168.482 390.241 170.137 C 390.252 170.551 390.295 170.894 390.371 171.167 C 390.68 172.464 391.292 173.49 392.209 174.243 C 393.125 174.997 394.101 175.351 395.136 175.306 C 396.033 175.267 396.767 174.924 397.337 174.278 C 397.908 173.633 398.179 172.758 398.151 171.655 Z M 397.359 156.578 C 396.869 153.564 395.101 151.916 392.056 151.635 C 391.087 151.539 390.464 151.497 390.188 151.509 C 389.015 151.56 388.265 151.92 387.936 152.59 C 387.608 153.26 387.467 154.525 387.514 156.386 C 387.568 158.523 387.948 159.921 388.655 160.581 C 389.362 161.24 390.785 161.523 392.924 161.43 C 394.786 161.348 396.04 161.121 396.687 160.748 C 397.333 160.375 397.642 159.602 397.613 158.431 C 397.606 158.155 397.521 157.537 397.359 156.578 Z M 395.309 140.935 C 395.254 138.73 394.921 137.157 394.311 136.218 C 393.7 135.279 392.74 134.837 391.429 134.895 C 388.946 135.003 387.252 135.611 386.348 136.721 C 385.443 137.829 385.027 139.831 385.1 142.726 C 385.147 144.587 385.54 145.829 386.281 146.452 C 387.021 147.076 388.392 147.344 390.392 147.256 C 392.531 147.163 393.901 146.724 394.503 145.939 C 395.105 145.153 395.374 143.485 395.309 140.935 Z M 396.99 125.337 C 396.941 123.407 394.537 122.546 389.778 122.754 C 386.95 122.877 385.059 123.236 384.107 123.829 C 383.156 124.422 382.701 125.546 382.742 127.2 C 382.81 129.888 384.12 131.177 386.672 131.065 C 389.707 130.933 392.195 130.325 394.136 129.239 C 396.077 128.154 397.028 126.854 396.99 125.337 Z M 396.687 113.24 C 396.64 111.379 395.306 110.506 392.684 110.621 L 392.064 110.648 C 388.616 110.867 386.144 111.423 384.647 112.317 C 383.15 113.21 382.425 114.552 382.47 116.345 C 382.509 117.93 383.185 118.694 384.496 118.637 C 385.048 118.612 385.94 118.401 387.173 118.003 C 390.463 117.031 392.833 116.514 394.281 116.45 C 394.902 116.423 395.463 116.089 395.965 115.446 C 396.467 114.803 396.708 114.067 396.687 113.24 Z M 397.692 103.778 C 397.887 103.287 397.978 102.765 397.964 102.213 C 397.942 101.318 397.683 100.639 397.187 100.178 C 396.622 99.651 395.58 99.42 394.062 99.485 C 392.131 99.57 390.142 100.088 388.094 101.04 C 386.046 101.992 384.864 103.026 384.547 104.144 C 384.548 104.213 384.532 104.283 384.5 104.353 C 384.467 104.424 384.452 104.493 384.454 104.562 C 384.488 105.941 386.505 106.543 390.507 106.369 C 394.3 106.203 396.695 105.34 397.692 103.778 Z M 398.038 88.652 C 398.016 87.756 397.394 87.042 396.172 86.508 C 394.95 85.975 393.546 85.743 391.959 85.812 C 389.821 85.905 388.247 86.491 387.238 87.57 C 386.297 88.577 385.849 90.011 385.896 91.873 C 385.925 93.044 386.158 94.069 386.594 94.947 C 387.031 95.825 387.594 96.249 388.284 96.219 C 390.284 96.131 392.419 95.21 394.689 93.455 C 396.958 91.7 398.074 90.099 398.038 88.652 Z M 396.879 79.594 C 397.007 79.175 397.069 78.93 397.067 78.861 C 397.045 77.965 396.344 77.547 394.965 77.608 C 392.757 77.704 391.671 78.442 391.705 79.82 C 391.719 80.371 391.921 80.828 392.309 81.19 C 392.698 81.553 393.134 81.724 393.617 81.703 C 395.065 81.64 396.153 80.937 396.879 79.594 Z M 427.305 78.475 C 423.649 75.874 419.406 74.679 414.577 74.89 C 410.507 75.067 407.567 76.23 405.757 78.379 C 404.216 80.241 402.981 88.161 402.054 102.139 C 401.127 116.117 400.842 130.24 401.2 144.508 C 401.335 149.884 401.562 154.843 401.884 159.383 C 402.679 169.078 403.425 175.393 404.12 178.329 C 404.815 181.267 406.261 183.86 408.458 186.11 C 411.858 189.481 415.558 191.079 419.559 190.905 C 423.077 190.751 425.868 189.146 427.932 186.089 C 430.065 183.029 430.981 175.503 430.681 163.51 C 430.478 155.445 430.557 150.335 430.918 148.181 C 431.278 146.026 432.376 144.392 434.213 143.276 C 436.529 142.002 439.204 141.299 442.24 141.167 C 443.067 141.13 443.655 141.139 444.001 141.194 C 446.631 141.424 448.275 142.284 448.934 143.773 C 449.593 145.262 450.265 150.029 450.95 158.072 C 451.802 167.281 453.079 173.418 454.779 176.484 C 456.478 179.549 459.466 180.988 463.743 180.802 C 467.261 180.649 469.658 179.854 470.935 178.419 C 473.016 176.051 474.581 169.634 475.631 159.169 C 476.291 152.448 477.197 139.022 478.35 118.893 C 478.837 110.798 479.03 104.717 478.928 100.651 C 478.773 94.448 478.079 89.51 476.848 85.837 C 475.616 82.165 473.655 79.008 470.965 76.365 C 468.341 73.65 465.857 72.344 463.512 72.446 C 460.477 72.578 458.068 74.978 456.286 79.644 C 454.504 84.31 453.711 90.537 453.906 98.326 L 453.968 100.808 C 454.075 102.321 454.157 104.215 454.214 106.489 C 454.299 109.867 454.083 112.274 453.567 113.711 C 453.05 115.148 451.914 116.664 450.159 118.259 C 447.862 120.29 445.506 121.359 443.092 121.465 C 439.781 121.609 436.393 120.066 432.928 116.836 C 431.021 115.125 430.044 113.374 429.999 111.581 C 429.97 110.41 430.298 108.36 430.984 105.432 C 432.431 99.78 433.107 95.058 433.012 91.268 C 432.865 85.409 430.963 81.145 427.305 78.475 Z M 397.543 68.905 C 399.881 68.527 401.74 68.308 403.12 68.248 C 404.43 68.191 405.294 68.222 405.712 68.342 C 413.397 69.111 418.735 69.93 421.726 70.801 C 424.717 71.671 427.62 73.148 430.434 75.233 C 433.252 77.457 435.012 79.467 435.714 81.265 C 436.414 83.063 436.83 86.547 436.96 91.716 C 437.16 99.712 436.695 104.562 435.563 106.267 C 434.834 107.472 434.483 108.626 434.511 109.729 C 434.556 111.521 435.337 113.057 436.854 114.336 C 438.37 115.616 440.164 116.21 442.233 116.12 C 442.716 116.099 443.094 116.048 443.368 115.967 C 444.331 115.787 445.018 115.636 445.429 115.515 C 445.84 115.394 446.301 115.201 446.812 114.937 C 447.324 114.673 447.676 114.261 447.869 113.7 C 448.062 113.14 448.27 112.459 448.492 111.655 C 448.713 110.852 448.857 109.707 448.923 108.221 C 448.99 106.734 449.069 105.092 449.162 103.294 C 449.255 101.496 449.335 99.181 449.403 96.349 L 449.4 96.245 C 449.752 85.535 450.917 78.291 452.894 74.513 C 454.871 70.735 458.585 68.728 464.035 68.491 C 476.382 67.952 482.86 79.814 483.468 104.076 C 483.541 106.97 483.514 110.007 483.387 113.187 C 482.937 128.318 482.168 138.978 481.08 145.166 C 480.022 152.526 479.549 158.446 479.662 162.927 C 479.776 167.476 478.756 172.247 476.602 177.24 C 475.031 180.69 473.599 182.788 472.306 183.534 C 471.013 184.28 468.055 184.754 463.433 184.956 C 457.156 185.229 452.859 183.95 450.544 181.118 C 448.229 178.287 446.965 172.633 446.752 164.155 L 446.677 161.157 L 446.579 157.227 C 446.476 153.161 446.215 150.309 445.794 148.671 C 445.373 147.033 444.607 146.066 443.495 145.77 C 442.449 145.401 441.513 145.235 440.686 145.271 C 438.615 145.361 437.169 146.908 436.347 149.911 C 435.525 152.913 435.198 157.792 435.368 164.548 L 435.422 166.719 C 435.543 168.783 435.643 171.401 435.722 174.572 C 435.833 178.982 435.582 182.047 434.969 183.764 C 434.356 185.481 432.874 187.633 430.522 190.22 C 426.556 194.533 422.4 196.784 418.054 196.973 C 415.087 197.102 412.304 196.258 409.703 194.439 C 407.099 192.483 404.348 191.568 401.451 191.694 C 398.485 191.823 395.563 190.278 392.685 187.056 C 389.808 183.835 387.687 179.805 386.323 174.966 C 382.16 160.45 379.852 144.128 379.397 126 C 379.015 110.768 380.106 97.817 382.67 87.148 C 384.182 81.355 386.077 77.063 388.355 74.273 C 390.633 71.483 393.695 69.694 397.543 68.905 Z" style="fill: none; paint-order: stroke; stroke-linejoin: bevel; stroke-opacity: 0.44; stroke-width: 0.995297px; text-transform: uppercase; white-space: pre; vector-effect: non-scaling-stroke; stroke: rgb(0, 199, 255);" transform="matrix(0.985333, -0.170641, 0.170641, 0.985333, -16.300074, 75.562019)"/>
  <path d="M 508.299 160.501 C 507.653 159.112 506.951 158.412 506.193 158.402 C 505.915 158.467 505.788 158.655 505.812 158.966 C 505.837 159.277 506.01 159.78 506.333 160.474 C 507.117 161.865 507.819 162.565 508.439 162.573 C 509.129 162.582 509.082 161.892 508.299 160.501 Z M 503.587 149.257 C 501.86 147.163 500.48 146.11 499.445 146.096 C 498.203 146.08 497.559 146.83 497.51 148.347 C 497.442 150.486 498.312 152.395 500.121 154.076 C 501.129 154.918 502.013 155.344 502.771 155.354 C 504.15 155.373 504.868 154.52 504.923 152.795 C 504.96 151.622 504.515 150.443 503.587 149.257 Z M 501.445 138.566 C 501.211 137.251 500.659 136.191 499.787 135.386 C 498.916 134.581 497.963 134.171 496.929 134.157 C 496.032 134.145 495.28 134.446 494.674 135.058 C 494.069 135.671 493.748 136.53 493.712 137.634 C 493.664 139.151 493.974 140.26 494.641 140.959 C 495.309 141.658 496.401 142.018 497.919 142.038 C 500.264 142.07 501.463 141.258 501.516 139.602 C 501.529 139.188 501.505 138.843 501.445 138.566 Z M 500.303 125.713 C 500.392 122.954 499.057 121.556 496.298 121.519 C 493.608 121.483 492.219 122.844 492.131 125.604 C 492.045 128.294 493.347 129.657 496.037 129.693 C 498.795 129.731 500.217 128.404 500.303 125.713 Z M 495.392 117.47 C 498.841 117.516 500.598 116.504 500.664 114.434 C 500.731 112.365 499.04 111.307 495.591 111.261 C 492.212 111.215 490.489 112.227 490.423 114.297 C 490.357 116.367 492.013 117.424 495.392 117.47 Z M 502.594 102.659 C 502.21 101.688 501.46 100.884 500.342 100.248 C 499.223 99.611 498.044 99.285 496.803 99.268 C 494.251 99.234 492.946 100.114 492.889 101.908 C 492.82 104.046 494.545 105.139 498.063 105.186 C 501.097 105.227 502.636 104.557 502.681 103.177 C 502.682 103.108 502.668 103.022 502.637 102.918 C 502.606 102.814 502.591 102.728 502.594 102.659 Z M 505.417 92.034 C 505.448 91.068 504.989 90.303 504.042 89.738 C 503.094 89.174 501.965 88.882 500.654 88.864 C 498.93 88.841 497.604 89.307 496.677 90.261 C 495.68 91.213 495.172 92 495.152 92.621 C 495.101 94.208 496.8 95.024 500.249 95.07 C 503.628 95.116 505.351 94.104 505.417 92.034 Z M 510.67 79.889 C 510.826 79.339 510.908 78.926 510.916 78.65 C 510.956 77.408 510.045 76.775 508.183 76.75 C 503.976 76.694 501.825 78.149 501.73 81.115 C 501.692 82.288 502.639 82.887 504.57 82.913 C 505.812 82.93 507.046 82.653 508.271 82.082 C 509.497 81.512 510.296 80.781 510.67 79.889 Z M 516.593 69.41 C 516.642 67.892 516.046 67.125 514.804 67.108 C 513.356 67.088 511.774 67.999 510.06 69.84 C 508.981 71.205 508.438 72.026 508.429 72.302 C 508.419 72.578 508.691 72.72 509.242 72.727 C 509.38 72.729 510.213 72.602 511.739 72.346 C 513.19 72.297 514.355 71.985 515.236 71.41 C 516.117 70.835 516.569 70.169 516.593 69.41 Z M 525.879 60.631 C 526.612 59.261 526.358 58.567 525.117 58.551 C 523.599 58.53 522.474 59.206 521.741 60.576 C 521.378 61.123 521.259 61.605 521.384 62.02 C 521.508 62.436 521.881 62.648 522.502 62.657 C 522.985 62.663 523.595 62.447 524.333 62.008 C 525.072 61.569 525.587 61.11 525.879 60.631 Z M 573.776 61.274 C 570.216 58.26 567.124 56.251 564.499 55.249 C 561.875 54.248 557.912 53.573 552.61 53.227 L 540.223 52.232 L 530.714 61.525 C 523.739 68.194 518.415 75.024 514.742 82.014 C 511.068 89.004 508.571 96.976 507.249 105.93 C 506.637 109.994 506.259 114.268 506.115 118.752 C 505.764 129.721 507.039 139.469 509.94 147.996 C 512.842 156.524 517.027 162.654 522.497 166.386 C 525.198 168.216 527.952 169.461 530.761 170.119 C 533.568 170.778 537.559 171.143 542.731 171.213 C 555.766 171.387 565.529 169.759 572.021 166.327 C 578.513 162.894 584.471 156.21 589.895 146.276 C 593.337 140.042 595.211 132.131 595.518 122.542 C 595.891 110.883 594.058 99.16 590.019 87.373 C 585.98 75.586 580.566 66.887 573.776 61.274 Z M 527.031 53.711 C 531.869 51.291 535.492 49.666 537.899 48.836 C 540.306 48.006 542.785 47.608 545.337 47.642 C 546.165 47.653 547.954 47.815 550.704 48.129 C 566.513 49.997 578.759 57.598 587.439 70.931 C 596.121 84.264 600.121 101.588 599.439 122.904 C 599.192 130.631 598.709 136.025 597.99 139.086 C 597.271 142.148 595.639 145.732 593.092 149.839 C 588.367 157.367 583.928 162.932 579.776 166.534 C 575.625 170.136 570.802 172.624 565.308 174 C 559.812 175.375 552.306 175.999 542.789 175.871 C 529.203 175.689 517.558 172.478 507.857 166.24 C 498.155 160.002 491.984 151.758 489.345 141.509 C 488.666 139.015 488.146 135.316 487.786 130.411 C 487.425 125.506 487.317 120.812 487.46 116.327 L 487.573 112.81 C 487.753 107.153 488.274 102.742 489.134 99.58 C 489.994 96.417 491.786 92.162 494.51 86.816 C 499.071 77.973 503.633 71.237 508.197 66.605 C 512.761 61.974 519.039 57.675 527.031 53.711 Z" style="fill: none; paint-order: stroke; stroke-linejoin: bevel; stroke-opacity: 0.44; stroke-width: 0.995297px; text-transform: uppercase; white-space: pre; vector-effect: non-scaling-stroke; stroke: rgb(0, 199, 255);" transform="matrix(0.985333, -0.170641, 0.170641, 0.985333, -11.100736, 94.375153)"/>
  <path d="M 622.691 144.58 C 622.124 143.156 621.118 142.394 619.675 142.295 C 618.437 142.209 618.102 142.878 618.669 144.302 C 619.373 145.736 620.378 146.497 621.685 146.588 C 622.304 146.631 622.701 146.433 622.877 145.995 C 623.054 145.557 622.992 145.085 622.691 144.58 Z M 622.373 136.353 C 622.427 135.733 622.007 135.202 621.111 134.759 C 620.217 134.317 619.082 134.049 617.707 133.953 C 614.202 133.711 612.045 134.255 611.237 135.584 C 611.075 135.849 610.991 136.016 610.985 136.085 C 610.895 137.118 612.534 137.751 615.902 137.983 C 617.621 138.102 619.117 137.997 620.39 137.67 C 621.664 137.342 622.325 136.903 622.373 136.353 Z M 621.48 124.035 C 619.401 122.506 616.539 121.616 612.896 121.365 C 610.971 121.232 609.599 121.31 608.778 121.599 C 607.958 121.889 607.508 122.482 607.43 123.377 C 607.388 123.858 607.389 124.239 607.434 124.519 C 607.594 125.846 608.398 126.94 609.844 127.801 C 611.289 128.663 612.975 129.16 614.899 129.294 C 617.236 129.455 619.312 129.044 621.127 128.062 C 622.587 127.193 623.331 126.586 623.361 126.242 C 623.398 125.83 622.771 125.094 621.48 124.035 Z M 620.642 117.018 C 620.642 117.018 620.894 116.897 621.4 116.655 C 621.905 116.413 622.23 115.466 622.375 113.814 C 622.52 112.162 622.15 111.046 621.268 110.466 C 620.385 109.886 618.5 109.496 615.613 109.296 C 612.725 109.097 610.778 109.222 609.77 109.672 C 608.763 110.122 608.187 111.172 608.043 112.824 C 607.898 114.476 608.3 115.611 609.249 116.231 C 610.197 116.851 612.08 117.258 614.899 117.453 C 617.717 117.647 619.631 117.502 620.642 117.018 Z M 625.042 101.119 C 625.135 100.848 625.202 100.472 625.245 99.991 C 625.383 98.407 623.734 97.497 620.297 97.26 C 617.616 97.075 615.1 97.369 612.751 98.141 C 610.401 98.913 609.181 99.816 609.091 100.849 C 609.066 101.124 609.18 101.409 609.431 101.703 C 610.371 102.807 612.973 103.506 617.235 103.8 C 617.71 103.901 618.36 103.981 619.185 104.038 C 622.416 104.261 624.368 103.289 625.042 101.119 Z M 625.256 89.189 C 624.545 87.824 622.437 87.021 618.932 86.779 C 616.663 86.622 614.644 86.778 612.875 87.244 C 611.105 87.71 610.178 88.425 610.093 89.389 C 609.913 91.453 611.472 92.599 614.772 92.827 C 617.728 93.031 620.215 92.857 622.234 92.305 C 624.253 91.751 625.305 90.993 625.39 90.03 C 625.42 89.686 625.375 89.405 625.256 89.189 Z M 625.42 79.022 C 625.462 78.54 624.692 78.054 623.11 77.564 C 621.527 77.074 619.636 76.753 617.437 76.601 C 611.938 76.221 609.11 76.926 608.953 78.716 C 608.881 79.541 609.499 80.38 610.807 81.232 C 611.458 81.693 612.54 81.975 614.053 82.079 C 616.39 82.241 618.849 81.995 621.43 81.343 C 624.012 80.69 625.341 79.916 625.42 79.022 Z M 625.875 69.082 C 626.001 67.637 624.174 66.783 620.394 66.522 C 616.957 66.285 614.147 66.783 611.965 68.017 C 610.655 68.758 609.988 69.266 609.964 69.541 C 609.928 69.954 610.644 70.453 612.114 71.039 C 613.441 71.685 615.101 72.077 617.094 72.215 C 619.157 72.357 621.11 72.163 622.954 71.633 C 624.799 71.103 625.773 70.252 625.875 69.082 Z M 627.209 58.58 C 627.306 57.479 626.357 56.859 624.363 56.721 C 621.614 56.532 618.436 57.282 614.831 58.972 L 609.525 61.514 L 614.972 62.097 C 618.271 62.325 621.109 62.105 623.484 61.438 C 625.859 60.772 627.101 59.819 627.209 58.58 Z M 625.108 49.399 C 626.729 48.264 627.557 47.49 627.594 47.078 C 627.617 46.802 627.423 46.65 627.011 46.622 C 625.636 46.527 623.248 47.331 619.849 49.035 C 617.685 50.063 616.581 50.818 616.54 51.3 C 616.509 51.644 616.903 51.879 617.722 52.004 C 619.647 52.137 622.109 51.269 625.108 49.399 Z M 682.467 54.191 C 678.041 51.046 674.251 48.915 671.098 47.797 C 667.946 46.679 662.847 45.669 655.803 44.767 C 650.603 44.131 647.35 43.768 646.044 43.678 C 640.682 43.307 637.09 44.254 635.267 46.517 C 633.443 48.78 632.173 54.006 631.457 62.197 C 631.077 66.533 630.631 73.6 630.12 83.397 C 628.688 110.026 628.211 126.542 628.688 132.946 C 629.251 139.148 630.819 142.96 633.391 144.384 C 634.449 144.942 635.872 145.283 637.659 145.406 C 638.552 145.468 640.317 145.451 642.954 145.356 C 655.247 144.751 664.891 142.423 671.885 138.37 C 678.878 134.318 683.957 128.039 687.122 119.533 C 690.005 112.668 692.341 107.706 694.131 104.645 C 696.018 101.243 697.212 96.686 697.713 90.973 C 698.508 81.889 697.649 74.316 695.136 68.256 C 694.463 66.479 692.881 64.206 690.392 61.437 C 687.902 58.669 685.26 56.254 682.467 54.191 Z M 635.036 39.074 C 638.175 37.976 642.529 37.619 648.097 38.003 C 653.596 38.383 659.332 39.419 665.303 41.113 C 671.275 42.806 676.299 44.867 680.374 47.295 C 687.141 51.363 692.15 55.57 695.4 59.914 C 698.651 64.259 700.978 69.872 702.38 76.754 C 703.277 81.525 703.502 86.457 703.056 91.55 C 702.442 98.571 701.024 103.32 698.801 105.798 C 697.73 106.97 695.573 111.461 692.331 119.269 C 689.245 126.88 684.618 133.52 678.451 139.187 C 674.546 142.726 671.191 145.108 668.386 146.334 C 665.582 147.559 660.989 148.679 654.607 149.692 C 645.072 151.181 635.801 151.614 626.797 150.992 C 618.273 150.403 612.621 149.009 609.84 146.809 C 608.687 145.759 607.549 144.14 606.427 141.951 C 605.304 139.761 604.524 137.613 604.087 135.506 C 603.452 132.484 603.423 122.944 603.999 106.884 C 604.574 90.825 605.383 76.841 606.425 64.935 C 607.052 57.776 607.597 53.521 608.061 52.168 C 609.189 49.545 613.042 47.007 619.62 44.553 C 623.407 43.153 628.546 41.327 635.036 39.074 Z" style="fill: none; paint-order: stroke; stroke-linejoin: bevel; stroke-opacity: 0.44; stroke-width: 0.995297px; text-transform: uppercase; white-space: pre; vector-effect: non-scaling-stroke; stroke: rgb(0, 199, 255);" transform="matrix(0.985333, -0.170641, 0.170641, 0.985333, -6.552149, 112.889412)"/>
  <path d="M 719.272 135.043 C 719.584 134.804 719.769 134.478 719.827 134.067 C 719.933 133.313 719.683 132.499 719.076 131.623 C 718.47 130.748 717.791 130.264 717.039 130.173 C 716.425 130.097 715.908 130.312 715.489 130.818 C 715.226 131.203 715.07 131.568 715.022 131.911 C 714.906 132.732 715.13 133.49 715.692 134.186 C 716.254 134.882 716.945 135.281 717.765 135.381 C 718.38 135.457 718.882 135.344 719.272 135.043 Z M 719.69 121.72 C 719.912 120.144 719.744 118.992 719.186 118.261 C 718.629 117.531 717.565 117.07 715.993 116.878 C 713.67 116.593 712.393 117.272 712.161 118.916 C 712.103 119.326 712.089 119.673 712.119 119.955 C 712.209 121.29 712.643 122.405 713.42 123.302 C 714.197 124.198 715.099 124.709 716.124 124.835 C 717.012 124.944 717.79 124.726 718.457 124.18 C 719.125 123.636 719.536 122.816 719.69 121.72 Z M 721.393 106.672 C 721.407 103.609 719.941 101.688 716.992 100.908 C 716.055 100.653 715.45 100.509 715.177 100.476 C 714.015 100.334 713.218 100.567 712.785 101.175 C 712.351 101.784 712.004 103.013 711.744 104.861 C 711.445 106.985 711.588 108.431 712.175 109.199 C 712.762 109.968 714.115 110.482 716.232 110.741 C 718.078 110.968 719.349 110.949 720.045 110.687 C 720.743 110.424 721.174 109.71 721.338 108.546 C 721.376 108.273 721.395 107.648 721.393 106.672 Z M 721.953 90.858 C 722.262 88.666 722.194 87.055 721.749 86.026 C 721.303 84.996 720.431 84.401 719.132 84.241 C 716.673 83.94 714.907 84.264 713.834 85.212 C 712.762 86.161 712.024 88.073 711.619 90.949 C 711.358 92.798 711.541 94.091 712.167 94.83 C 712.793 95.568 714.096 96.059 716.077 96.302 C 718.196 96.562 719.616 96.353 720.337 95.675 C 721.057 94.997 721.596 93.392 721.953 90.858 Z M 726.174 75.7 C 726.445 73.783 724.223 72.536 719.508 71.958 C 716.706 71.614 714.789 71.658 713.755 72.088 C 712.722 72.518 712.089 73.555 711.857 75.199 C 711.481 77.87 712.556 79.36 715.085 79.67 C 718.091 80.039 720.638 79.846 722.725 79.092 C 724.812 78.338 725.962 77.207 726.174 75.7 Z M 727.868 63.683 C 728.129 61.833 726.961 60.75 724.364 60.431 L 723.749 60.356 C 720.323 60.006 717.801 60.149 716.181 60.786 C 714.563 61.424 713.628 62.633 713.377 64.413 C 713.155 65.989 713.693 66.856 714.992 67.014 C 715.538 67.081 716.451 67.019 717.728 66.828 C 721.124 66.408 723.539 66.287 724.974 66.463 C 725.589 66.538 726.196 66.299 726.795 65.745 C 727.394 65.192 727.752 64.505 727.868 63.683 Z M 730.415 54.486 C 730.687 54.031 730.862 53.53 730.939 52.982 C 731.064 52.092 730.922 51.378 730.511 50.84 C 730.042 50.225 729.056 49.826 727.553 49.642 C 725.639 49.407 723.598 49.591 721.427 50.196 C 719.257 50.801 717.924 51.63 717.428 52.684 C 717.418 52.752 717.391 52.819 717.348 52.883 C 717.304 52.947 717.277 53.014 717.268 53.082 C 717.074 54.452 718.959 55.38 722.922 55.866 C 726.68 56.327 729.177 55.867 730.415 54.486 Z M 733.245 39.576 C 733.371 38.686 732.877 37.877 731.763 37.148 C 730.649 36.419 729.307 35.958 727.736 35.765 C 725.617 35.506 723.973 35.827 722.804 36.729 C 721.712 37.57 721.036 38.915 720.776 40.764 C 720.611 41.928 720.671 42.98 720.956 43.921 C 721.241 44.861 721.725 45.374 722.408 45.458 C 724.389 45.701 726.64 45.141 729.16 43.778 C 731.681 42.415 733.042 41.014 733.245 39.576 Z M 733.597 30.424 C 733.791 30.03 733.893 29.798 733.903 29.73 C 734.028 28.84 733.408 28.311 732.042 28.144 C 729.855 27.875 728.665 28.426 728.472 29.795 C 728.395 30.343 728.518 30.829 728.84 31.251 C 729.163 31.674 729.564 31.915 730.041 31.974 C 731.476 32.149 732.661 31.633 733.597 30.424 Z M 763.699 34.325 C 760.532 31.15 756.557 29.269 751.774 28.682 C 747.743 28.188 744.66 28.855 742.526 30.683 C 740.704 32.271 738.186 39.904 734.973 53.581 C 731.76 67.26 729.155 81.186 727.158 95.362 C 726.405 100.704 725.812 105.647 725.381 110.192 C 724.567 119.915 724.259 126.286 724.459 129.305 C 724.66 132.326 725.655 135.13 727.445 137.718 C 730.232 141.613 733.607 143.803 737.57 144.289 C 741.055 144.716 744.064 143.588 746.596 140.903 C 749.198 138.226 751.338 130.93 753.017 119.014 C 754.146 111.002 755.065 105.96 755.774 103.887 C 756.483 101.814 757.832 100.378 759.821 99.577 C 762.309 98.697 765.056 98.442 768.062 98.811 C 768.882 98.911 769.457 99.017 769.79 99.127 C 772.338 99.788 773.813 100.909 774.215 102.491 C 774.618 104.073 774.494 108.9 773.843 116.97 C 773.165 126.223 773.41 132.505 774.577 135.817 C 775.743 139.13 778.444 141.046 782.681 141.566 C 786.165 141.993 788.653 141.602 790.145 140.392 C 792.581 138.392 795.177 132.301 797.932 122.119 C 799.688 115.577 802.79 102.443 807.237 82.716 C 809.049 74.788 810.24 68.803 810.809 64.763 C 811.677 58.6 811.809 53.6 811.203 49.763 C 810.596 45.927 809.188 42.48 806.978 39.423 C 804.845 36.305 802.617 34.604 800.294 34.319 C 797.288 33.95 794.524 35.928 792.004 40.252 C 789.484 44.575 787.678 50.605 786.588 58.344 L 786.24 60.809 C 786.096 62.324 785.865 64.212 785.547 66.472 C 785.074 69.827 784.465 72.173 783.721 73.51 C 782.976 74.847 781.61 76.16 779.621 77.449 C 777.028 79.081 774.536 79.75 772.144 79.457 C 768.864 79.055 765.787 76.971 762.912 73.205 C 761.318 71.198 760.647 69.304 760.897 67.524 C 761.061 66.36 761.722 64.386 762.879 61.602 C 765.232 56.247 766.674 51.687 767.205 47.921 C 768.025 42.1 766.856 37.568 763.699 34.325 Z M 736.009 19.957 C 738.371 19.968 740.235 20.057 741.602 20.224 C 742.9 20.384 743.745 20.557 744.135 20.744 C 751.565 22.77 756.678 24.46 759.477 25.813 C 762.275 27.166 764.886 29.105 767.31 31.632 C 769.715 34.296 771.114 36.575 771.507 38.469 C 771.901 40.363 771.736 43.879 771.012 49.015 C 769.893 56.959 768.637 61.681 767.243 63.182 C 766.328 64.254 765.793 65.338 765.639 66.434 C 765.388 68.214 765.903 69.862 767.184 71.378 C 768.464 72.893 770.13 73.776 772.179 74.027 C 772.658 74.086 773.038 74.098 773.321 74.064 C 774.297 74.044 774.998 74.007 775.422 73.955 C 775.846 73.903 776.331 73.788 776.878 73.611 C 777.424 73.435 777.838 73.085 778.12 72.562 C 778.403 72.039 778.719 71.399 779.068 70.64 C 779.418 69.882 779.748 68.773 780.058 67.314 C 780.369 65.854 780.717 64.242 781.104 62.478 C 781.492 60.714 781.952 58.437 782.485 55.646 L 782.499 55.543 C 784.609 45.005 786.948 38.029 789.513 34.617 C 792.08 31.204 796.062 29.829 801.46 30.491 C 813.689 31.99 818.106 44.793 814.71 68.898 C 814.304 71.774 813.777 74.775 813.128 77.9 C 810.196 92.796 807.685 103.217 805.596 109.161 C 803.343 116.269 801.904 122.049 801.276 126.5 C 800.639 131.02 798.851 135.573 795.911 140.158 C 793.799 143.313 792.045 145.153 790.65 145.678 C 789.256 146.204 786.27 146.186 781.692 145.624 C 775.474 144.862 771.46 142.889 769.65 139.706 C 767.839 136.524 767.527 130.721 768.714 122.297 L 769.134 119.319 L 769.684 115.415 C 770.254 111.375 770.466 108.51 770.322 106.821 C 770.177 105.131 769.582 104.048 768.538 103.571 C 767.571 103.035 766.678 102.716 765.858 102.616 C 763.808 102.365 762.132 103.657 760.829 106.492 C 759.525 109.328 758.401 114.102 757.455 120.812 L 757.151 122.97 C 756.93 125.033 756.598 127.639 756.154 130.789 C 755.536 135.172 754.784 138.162 753.899 139.761 C 753.014 141.359 751.202 143.244 748.463 145.416 C 743.852 149.031 739.395 150.574 735.09 150.046 C 732.153 149.686 729.555 148.392 727.297 146.164 C 725.059 143.799 722.504 142.441 719.635 142.09 C 716.697 141.729 714.078 139.719 711.779 136.058 C 709.48 132.398 708.058 128.061 707.513 123.048 C 705.81 108.001 706.228 91.472 708.765 73.462 C 710.898 58.327 714.104 45.693 718.381 35.559 C 720.822 30.076 723.392 26.142 726.091 23.756 C 728.79 21.37 732.096 20.104 736.009 19.957 Z" style="fill: none; paint-order: stroke; stroke-linejoin: bevel; stroke-opacity: 0.44; stroke-width: 0.995297px; text-transform: uppercase; white-space: pre; vector-effect: non-scaling-stroke; stroke: rgb(0, 199, 255);" transform="matrix(0.985333, -0.170641, 0.170641, 0.985333, -3.349734, 131.131256)"/>
  <path d="M 829.028 123.241 C 829.022 122.186 828.587 121.178 827.722 120.218 C 826.856 119.258 825.833 118.57 824.654 118.153 C 823.596 117.827 822.932 117.641 822.66 117.593 C 821.238 117.344 820.415 117.797 820.192 118.951 C 820.166 119.087 820.142 119.575 820.119 120.414 C 820.126 121.47 820.558 122.494 821.417 123.488 C 822.275 124.481 823.295 125.187 824.475 125.605 C 825.533 125.93 826.197 126.117 826.467 126.164 C 827.89 126.413 828.713 125.96 828.936 124.805 C 828.976 124.601 829.007 124.08 829.028 123.241 Z M 829.952 111.388 C 830.202 110.096 828.612 108.904 825.181 107.811 C 824.72 107.66 824.116 107.519 823.371 107.389 C 822.219 107.187 821.367 107.248 820.815 107.573 C 820.261 107.898 819.887 108.57 819.69 109.589 C 819.506 110.54 819.611 111.262 820.007 111.753 C 820.402 112.243 821.142 112.584 822.226 112.773 C 823.039 112.916 823.689 112.995 824.176 113.01 C 825.638 113.055 826.944 112.915 828.092 112.589 C 829.24 112.264 829.86 111.863 829.952 111.388 Z M 836.056 99.915 C 836.437 97.944 834.629 96.609 830.632 95.908 C 826.635 95.207 824.446 95.843 824.066 97.814 C 823.672 99.853 825.473 101.222 829.47 101.922 C 833.467 102.623 835.662 101.954 836.056 99.915 Z M 839.757 87.283 C 839.084 85.69 837.969 84.757 836.411 84.484 C 834.718 84.188 832.615 84.557 830.104 85.592 C 827.619 86.492 826.265 87.52 826.041 88.675 C 825.766 90.102 827.084 91.07 829.997 91.581 C 832.436 92.008 834.625 91.917 836.563 91.308 C 838.502 90.699 839.589 89.783 839.825 88.56 C 839.904 88.152 839.882 87.727 839.757 87.283 Z M 843.181 79.347 C 843.369 79.099 843.483 78.873 843.522 78.669 C 843.667 77.921 842.858 77.393 841.097 77.084 C 838.862 76.693 836.203 76.859 833.122 77.584 C 831.514 77.934 830.683 78.245 830.63 78.517 C 830.564 78.857 832.09 79.301 835.206 79.846 L 836.121 80.006 C 837.679 80.279 839.155 80.345 840.548 80.202 C 841.941 80.06 842.819 79.775 843.181 79.347 Z M 850.347 68.903 C 850.649 67.34 849.682 66.363 847.447 65.971 C 845.55 65.639 842.809 65.51 839.222 65.584 C 837.747 65.606 836.544 65.94 835.614 66.585 C 834.684 67.23 834.134 67.994 833.963 68.878 C 833.832 69.558 834.022 70.206 834.533 70.823 C 835.044 71.439 835.842 71.842 836.926 72.033 C 840.245 72.614 843.243 72.595 845.919 71.974 C 848.595 71.354 850.071 70.33 850.347 68.903 Z M 856.04 56.832 C 855.49 55.33 854.368 54.431 852.675 54.134 C 851.049 53.85 848.628 54.058 845.41 54.758 C 842.194 55.46 840.46 56.456 840.211 57.747 C 839.922 59.243 841.606 60.311 845.264 60.952 C 848.11 61.45 850.583 61.426 852.685 60.881 C 854.786 60.336 855.955 59.452 856.191 58.229 C 856.296 57.685 856.246 57.219 856.04 56.832 Z M 862.806 47.373 C 863.84 46.008 864.396 45.122 864.474 44.714 C 864.619 43.967 863.709 43.421 861.745 43.076 C 860.729 42.898 859.315 43.055 857.504 43.546 C 855.694 44.036 854.04 44.712 852.543 45.574 L 847.018 48.611 L 853.381 49.937 C 857.784 50.708 860.926 49.854 862.806 47.373 Z M 894.865 44.558 C 892.344 41.657 889.797 39.982 887.222 39.531 C 885.19 39.174 882.668 39.54 879.656 40.629 C 876.105 41.974 873.116 44.032 870.689 46.804 C 868.263 49.576 864.261 55.427 858.684 64.357 C 845.586 85.389 837.737 102.633 835.137 116.09 C 833.706 123.498 834.017 129.139 836.07 133.011 C 836.946 134.64 838.065 136.101 839.426 137.393 C 840.787 138.686 842.009 139.427 843.093 139.617 C 845.396 140.02 848.419 137.968 852.162 133.46 C 855.904 128.951 858.787 123.818 860.81 118.059 C 862.116 114.564 863.677 111.922 865.494 110.132 C 867.31 108.342 869.099 107.602 870.86 107.91 C 872.689 108.231 874.219 109.552 875.451 111.876 C 877.216 115.066 878.488 120.629 879.266 128.565 C 880.314 138.726 883.344 144.246 888.357 145.124 C 889.915 145.397 891.667 145.212 893.612 144.569 C 895.639 143.87 897.069 142.628 897.904 140.842 C 898.74 139.056 899.79 135.252 901.055 129.432 C 901.621 126.861 902.318 123.435 903.145 119.153 C 905.101 109.027 905.972 98.359 905.756 87.149 C 905.652 78.629 904.526 70.228 902.379 61.947 C 900.231 53.667 897.727 47.871 894.865 44.558 Z M 872.338 35.552 C 876.905 34.385 882.136 34.318 888.03 35.351 C 892.433 36.122 895.634 37.315 897.633 38.931 C 900.19 40.924 902.874 46.787 905.686 56.52 C 908.498 66.252 910.138 75.164 910.606 83.256 C 911.251 96.227 910.084 110.427 907.103 125.854 C 905.331 135.029 903.412 141.157 901.346 144.238 C 897.71 149.644 893.115 151.86 887.56 150.887 C 885.528 150.53 883.669 149.818 881.984 148.75 C 880.299 147.682 878.894 145.802 877.769 143.111 C 876.643 140.419 875.597 136.318 874.63 130.809 C 872.539 120.606 871.053 115.427 870.173 115.273 C 869.089 115.083 866.902 118.248 863.611 124.768 C 862.085 127.592 860.224 130.516 858.029 133.539 C 855.835 136.562 853.855 138.832 852.091 140.35 C 847.446 144.455 842.617 146.068 837.604 145.19 C 832.93 144.371 828.142 141.424 823.239 136.349 C 818.607 131.322 815.976 128.085 815.345 126.64 C 814.548 124.603 814.055 120.81 813.866 115.261 C 813.678 109.712 813.859 105.511 814.41 102.657 C 814.647 101.434 814.927 100.71 815.25 100.486 C 816.988 99.104 821.614 87.302 829.129 65.08 C 829.858 62.397 830.861 60.465 832.14 59.284 C 833.152 58.759 833.914 57.171 834.426 54.52 C 834.912 52.006 838.832 48.301 846.186 43.406 C 853.539 38.512 858.571 36.302 861.281 36.777 C 864.856 37.122 868.542 36.714 872.338 35.552 Z" style="fill: none; paint-order: stroke; stroke-linejoin: bevel; stroke-opacity: 0.44; stroke-width: 0.995297px; text-transform: uppercase; white-space: pre; vector-effect: non-scaling-stroke; stroke: rgb(0, 199, 255);" transform="matrix(0.985333, -0.170641, 0.170641, 0.985333, -3.199918, 148.503464)"/>
  <path d="M 929.862 132.181 C 930.194 130.836 929.289 129.917 927.147 129.425 C 925.807 129.117 925.029 129.4 924.813 130.274 C 924.796 130.341 924.805 130.592 924.839 131.026 C 925.31 132.556 926.215 133.475 927.554 133.782 C 928.023 133.89 928.492 133.785 928.96 133.466 C 929.428 133.147 929.728 132.719 929.862 132.181 Z M 927.815 123.288 C 928.148 121.943 926.673 120.893 923.393 120.139 C 920.111 119.385 918.304 119.68 917.971 121.025 C 917.837 121.563 918.206 122.146 919.078 122.773 C 919.949 123.399 921.054 123.867 922.394 124.174 C 923.734 124.482 924.938 124.546 926.009 124.365 C 927.08 124.185 927.682 123.826 927.815 123.288 Z M 930.585 112.09 C 931.035 110.274 929.284 108.912 925.333 108.004 C 923.457 107.573 921.905 107.554 920.676 107.947 C 919.446 108.34 918.715 109.007 918.482 109.948 C 918.099 111.495 919.139 113.014 921.601 114.504 C 922.573 115.153 923.561 115.594 924.566 115.825 C 926.039 116.163 927.319 115.995 928.406 115.32 C 929.493 114.647 930.219 113.57 930.585 112.09 Z M 931.524 102.284 C 931.524 102.284 931.792 102.203 932.328 102.042 C 932.863 101.881 933.33 100.994 933.729 99.379 C 934.129 97.765 933.939 96.602 933.159 95.89 C 932.38 95.178 930.584 94.499 927.771 93.852 C 924.959 93.206 923.038 93.031 922.01 93.328 C 920.981 93.625 920.267 94.58 919.867 96.193 C 919.468 97.808 919.671 98.992 920.475 99.745 C 921.28 100.499 923.055 101.191 925.8 101.822 C 928.546 102.453 930.454 102.607 931.524 102.284 Z M 934.965 85.804 C 935.43 83.921 933.353 82.448 928.732 81.386 C 924.245 80.355 921.819 80.579 921.453 82.059 C 921.237 82.933 921.766 84.227 923.04 85.941 C 923.896 87.062 925.261 87.838 927.135 88.269 C 928.877 88.669 930.547 88.644 932.144 88.194 C 933.742 87.744 934.682 86.947 934.965 85.804 Z M 939.392 74.774 C 939.526 74.52 939.642 74.191 939.742 73.788 C 939.975 72.846 939.66 72.117 938.797 71.599 C 937.935 71.08 936.298 70.544 933.887 69.99 C 930.941 69.313 928.953 69.123 927.924 69.42 C 926.895 69.716 926.165 70.739 925.732 72.487 C 925.383 73.9 925.363 74.908 925.674 75.512 C 925.984 76.116 926.843 76.58 928.249 76.904 C 928.583 76.981 929.571 77.137 931.212 77.371 C 935.664 77.968 938.391 77.102 939.392 74.774 Z M 942.888 62.356 C 943.104 61.482 943.091 60.822 942.847 60.375 C 942.604 59.928 942.014 59.597 941.076 59.381 C 939.603 59.043 937.209 58.848 933.895 58.798 C 932.423 58.743 931.21 58.998 930.257 59.56 C 929.304 60.123 928.719 60.842 928.503 61.716 C 928.07 63.465 929.093 64.624 931.57 65.194 C 934.517 65.87 937.044 65.953 939.152 65.443 C 941.26 64.932 942.506 63.904 942.888 62.356 Z M 937.269 48.166 C 935.394 47.734 933.728 47.6 932.272 47.764 C 930.917 48.092 930.165 48.558 930.016 49.163 C 929.816 49.97 930.449 50.845 931.914 51.786 C 933.381 52.727 935.353 53.482 937.83 54.051 C 942.049 55.02 944.342 54.766 944.708 53.287 C 944.974 52.21 944.319 51.207 942.745 50.277 C 941.17 49.346 939.345 48.642 937.269 48.166 Z M 946.999 41.446 C 947.232 40.504 946.976 39.61 946.23 38.763 C 945.484 37.917 944.383 37.29 942.926 36.885 C 942.658 36.823 942.311 36.725 941.884 36.592 C 941.457 36.458 941.143 36.368 940.942 36.322 C 935.652 35.106 932.616 36.079 931.834 39.24 C 931.434 40.854 932.775 42.015 935.855 42.723 C 937.061 43 938.04 43.189 938.794 43.292 C 943.782 44.012 946.517 43.396 946.999 41.446 Z M 948.466 31.228 C 948.799 29.883 946.99 28.756 943.039 27.848 C 941.365 27.464 939.912 27.325 938.682 27.433 C 937.452 27.542 936.762 27.899 936.612 28.504 C 936.48 29.042 936.949 29.647 938.021 30.321 C 939.093 30.993 940.433 31.514 942.04 31.883 C 943.715 32.268 945.171 32.39 946.409 32.248 C 947.647 32.106 948.333 31.766 948.466 31.228 Z M 950.687 22.25 C 951.136 20.434 950.791 19.395 949.653 19.133 C 948.916 18.964 947.619 19.057 945.762 19.412 C 943.989 19.715 942.977 20.371 942.728 21.38 C 942.378 22.792 943.476 23.791 946.021 24.376 C 947.092 24.622 948.088 24.531 949.008 24.102 C 949.927 23.674 950.487 23.057 950.687 22.25 Z M 976.306 30.695 C 974.611 27.819 972.612 25.387 970.308 23.4 C 968.004 21.413 965.78 20.174 963.637 19.682 C 961.561 19.205 959.913 19.572 958.693 20.785 C 957.456 21.779 952.686 39.056 944.385 72.616 L 940.067 90.068 C 936.423 104.796 934.299 114.312 933.695 118.615 C 933.091 122.919 933.334 126.297 934.425 128.752 C 936.289 133.231 938.829 135.841 942.044 136.579 C 944.187 137.072 946.035 136.466 947.589 134.762 C 949.394 132.902 952.604 124.791 957.218 110.428 C 963.149 91.89 968.291 83.121 972.644 84.121 C 976.796 85.075 980.769 95.05 984.562 114.046 C 988.794 135.276 993.522 146.49 998.745 147.691 C 999.281 147.814 999.808 147.829 1000.327 147.735 C 1003.506 147.186 1006.697 143.086 1009.899 135.435 C 1013.101 127.784 1020.5 106.669 1032.098 72.09 C 1033.115 69.126 1034.014 66.063 1034.796 62.902 C 1037.89 50.392 1036.658 43.499 1031.1 42.222 C 1029.627 41.883 1027.686 42.006 1025.276 42.589 C 1017.832 44.646 1012.171 53.509 1008.295 69.178 C 1006.88 74.895 1005.71 78.767 1004.785 80.793 C 1003.859 82.819 1002.86 83.708 1001.789 83.463 C 999.981 83.047 997.604 79.995 994.659 74.308 C 991.713 68.619 988.777 61.53 985.853 53.04 C 984.693 49.433 983.168 45.44 981.279 41.061 C 979.39 36.682 977.732 33.227 976.306 30.695 Z M 953.562 14.061 C 956.942 13.559 960.808 13.808 965.161 14.808 C 966.3 15.07 967.095 15.288 967.547 15.463 C 970.544 16.507 972.973 18.06 974.834 20.123 C 976.694 22.185 978.666 25.446 980.748 29.905 C 982.83 34.363 985.828 41.697 989.742 51.908 C 995.068 65.57 998.116 72.703 998.887 73.307 L 998.987 73.33 L 999.063 73.454 C 999.934 73.654 1001.694 70.398 1004.345 63.687 C 1007.829 54.181 1011.936 47.236 1016.666 42.85 C 1021.396 38.464 1026.506 36.902 1031.998 38.164 C 1032.935 38.379 1033.63 38.574 1034.083 38.749 C 1036.56 39.603 1038.302 40.644 1039.309 41.87 C 1040.315 43.096 1040.82 45.273 1040.824 48.402 C 1040.829 51.53 1040.108 56.02 1038.66 61.871 C 1036.514 70.547 1030.943 88.776 1021.946 116.56 C 1018.531 127.219 1015.592 135.091 1013.132 140.175 C 1010.67 145.261 1008.152 148.645 1005.578 150.327 C 1003.003 152.01 999.84 152.42 996.09 151.559 C 992.541 150.743 989.612 147.778 987.303 142.663 C 984.994 137.548 982.651 128.782 980.273 116.365 C 976.782 98.718 973.899 89.633 971.622 89.11 C 971.287 89.033 970.953 89.098 970.618 89.306 C 969.531 89.98 966.588 97.3 961.789 111.265 C 958.806 120.175 956.275 126.684 954.198 130.79 C 952.12 134.897 949.936 137.718 947.646 139.253 C 945.355 140.788 942.369 141.416 938.687 141.139 C 937.079 141.054 935.305 140.788 933.363 140.342 C 929.412 139.434 925.732 137.93 922.323 135.832 C 918.914 133.734 916.572 131.543 915.297 129.26 C 913.3 125.603 912.696 119.387 913.487 110.613 C 914.277 101.839 916.625 87.986 920.53 69.053 C 922.641 59.09 924.329 51.553 925.593 46.441 C 927.29 39.582 928.859 34.239 930.301 30.412 C 931.744 26.585 933.601 23.512 935.874 21.191 C 938.147 18.87 940.525 17.266 943.009 16.38 C 945.493 15.494 949.011 14.721 953.562 14.061 Z" style="fill: none; paint-order: stroke; stroke-linejoin: bevel; stroke-opacity: 0.44; stroke-width: 0.995297px; text-transform: uppercase; white-space: pre; vector-effect: non-scaling-stroke; stroke: rgb(0, 199, 255);" transform="matrix(0.985333, -0.170641, 0.170641, 0.985333, 0.182592, 167.930069)"/>
</svg>