<?xml version="1.0" encoding="utf-8"?>
<svg viewBox="0 0 1100 300" width="1100" height="300" xmlns="http://www.w3.org/2000/svg">
  <path d="M 304.261 128.353 C 301.177 80.942 268.204 35.239 207.732 35.239 C 200.352 35.239 193.071 35.956 186.085 37.369 C 183.377 37.918 182.279 41.193 184.109 43.264 C 184.958 44.225 186.256 44.66 187.513 44.405 C 194.169 43.066 200.943 42.398 207.732 42.411 C 269.33 42.411 297.389 90.747 297.389 135.655 L 297.389 146.414 C 297.389 149.174 300.378 150.9 302.769 149.52 C 303.879 148.879 304.562 147.695 304.562 146.414 L 304.562 135.655 L 304.555 135.54 C 326.525 137.434 354.77 156.57 354.77 196.622 C 354.77 230.814 329.566 257.589 297.389 257.589 L 125.247 257.589 C 96.729 257.589 67.867 236.645 67.867 196.622 C 67.867 167.257 85.827 135.655 125.247 135.655 L 136.006 135.655 C 138.767 135.655 140.492 132.666 139.112 130.275 C 138.471 129.166 137.288 128.482 136.006 128.482 L 125.247 128.482 L 125.247 114.137 C 125.247 87.405 141.737 70.8 168.283 70.8 C 192.411 70.8 211.318 89.836 211.318 114.137 L 211.318 207.331 L 181.48 179.644 C 179.46 177.767 176.164 178.781 175.549 181.47 C 175.263 182.718 175.665 184.023 176.603 184.895 L 208.995 214.941 C 211.139 217.078 213.033 218.132 214.926 218.132 C 216.798 218.132 218.656 217.092 220.722 215.027 L 253.206 184.887 C 254.662 183.543 254.746 181.271 253.393 179.824 C 252.051 178.364 249.775 178.28 248.329 179.637 L 218.491 207.331 L 218.491 114.137 C 218.491 85.813 196.435 63.628 168.283 63.628 C 137.785 63.628 118.075 83.453 118.075 114.137 L 118.075 128.848 C 80.383 132.492 60.694 164.733 60.694 196.622 C 60.694 229.652 83.316 264.761 125.247 264.761 L 297.389 264.761 C 333.59 264.761 361.943 234.83 361.943 196.622 C 361.943 151.406 329.257 130.075 304.261 128.353 Z" style="fill: rgb(0, 199, 255);"/>
  <path d="M 454.778 116.559 Q 465.836 116.559 473.936 120.681 Q 482.035 124.804 486.352 132.467 Q 490.668 140.13 490.668 150.509 Q 490.668 160.888 486.352 168.502 Q 482.035 176.117 473.936 180.142 Q 465.836 184.168 454.778 184.168 L 433.729 184.168 L 433.729 116.559 L 454.778 116.559 Z M 454.778 176.893 Q 467.873 176.893 474.76 169.957 Q 481.647 163.022 481.647 150.509 Q 481.647 137.899 474.712 130.818 Q 467.776 123.737 454.778 123.737 L 442.556 123.737 L 442.556 176.893 L 454.778 176.893 Z" style="fill: rgb(0, 199, 255); white-space: pre;"/>
  <path d="M 532.959 184.847 Q 523.55 184.847 515.79 180.433 Q 508.03 176.02 503.52 168.114 Q 499.009 160.209 499.009 150.315 Q 499.009 140.421 503.52 132.515 Q 508.03 124.61 515.79 120.196 Q 523.55 115.783 532.959 115.783 Q 542.465 115.783 550.225 120.196 Q 557.985 124.61 562.447 132.467 Q 566.909 140.324 566.909 150.315 Q 566.909 160.306 562.447 168.163 Q 557.985 176.02 550.225 180.433 Q 542.465 184.847 532.959 184.847 Z M 532.959 177.184 Q 540.04 177.184 545.715 173.886 Q 551.389 170.588 554.639 164.477 Q 557.888 158.366 557.888 150.315 Q 557.888 142.167 554.639 136.104 Q 551.389 130.042 545.763 126.744 Q 540.137 123.446 532.959 123.446 Q 525.781 123.446 520.155 126.744 Q 514.529 130.042 511.28 136.104 Q 508.03 142.167 508.03 150.315 Q 508.03 158.366 511.28 164.477 Q 514.529 170.588 520.204 173.886 Q 525.878 177.184 532.959 177.184 Z" style="fill: rgb(0, 199, 255); white-space: pre;"/>
  <path d="M 663.514 116.559 L 643.92 184.168 L 634.026 184.168 L 618.312 129.751 L 602.016 184.168 L 592.219 184.265 L 573.304 116.559 L 582.713 116.559 L 597.457 173.886 L 613.753 116.559 L 623.647 116.559 L 639.167 173.692 L 654.008 116.559 Z" style="fill: rgb(0, 199, 255); white-space: pre;"/>
  <path d="M 726.369 184.168 L 717.542 184.168 L 682.04 130.333 L 682.04 184.168 L 673.213 184.168 L 673.213 116.462 L 682.04 116.462 L 717.542 170.2 L 717.542 116.462 L 726.369 116.462 Z" style="fill: rgb(0, 199, 255); white-space: pre;"/>
  <path d="M 750.228 176.99 L 773.896 176.99 L 773.896 184.168 L 741.401 184.168 L 741.401 116.559 L 750.228 116.559 Z" style="fill: rgb(0, 199, 255); white-space: pre;"/>
  <path d="M 813.959 184.847 Q 804.55 184.847 796.79 180.433 Q 789.03 176.02 784.52 168.114 Q 780.009 160.209 780.009 150.315 Q 780.009 140.421 784.52 132.515 Q 789.03 124.61 796.79 120.196 Q 804.55 115.783 813.959 115.783 Q 823.465 115.783 831.225 120.196 Q 838.985 124.61 843.447 132.467 Q 847.909 140.324 847.909 150.315 Q 847.909 160.306 843.447 168.163 Q 838.985 176.02 831.225 180.433 Q 823.465 184.847 813.959 184.847 Z M 813.959 177.184 Q 821.04 177.184 826.715 173.886 Q 832.389 170.588 835.639 164.477 Q 838.888 158.366 838.888 150.315 Q 838.888 142.167 835.639 136.104 Q 832.389 130.042 826.763 126.744 Q 821.137 123.446 813.959 123.446 Q 806.781 123.446 801.155 126.744 Q 795.529 130.042 792.28 136.104 Q 789.03 142.167 789.03 150.315 Q 789.03 158.366 792.28 164.477 Q 795.529 170.588 801.204 173.886 Q 806.878 177.184 813.959 177.184 Z" style="fill: rgb(0, 199, 255); white-space: pre;"/>
  <path d="M 899.521 169.133 L 870.033 169.133 L 864.601 184.168 L 855.289 184.168 L 879.733 116.947 L 889.918 116.947 L 914.265 184.168 L 904.953 184.168 Z M 896.999 161.955 L 884.777 127.811 L 872.555 161.955 Z" style="fill: rgb(0, 199, 255); white-space: pre;"/>
  <path d="M 945.981 116.559 Q 957.039 116.559 965.139 120.681 Q 973.238 124.804 977.555 132.467 Q 981.871 140.13 981.871 150.509 Q 981.871 160.888 977.555 168.502 Q 973.238 176.117 965.139 180.142 Q 957.039 184.168 945.981 184.168 L 924.932 184.168 L 924.932 116.559 L 945.981 116.559 Z M 945.981 176.893 Q 959.076 176.893 965.963 169.957 Q 972.85 163.022 972.85 150.509 Q 972.85 137.899 965.915 130.818 Q 958.979 123.737 945.981 123.737 L 933.759 123.737 L 933.759 176.893 L 945.981 176.893 Z" style="fill: rgb(0, 199, 255); white-space: pre;"/>
</svg>