<?xml version="1.0" encoding="utf-8"?>
<svg viewBox="9.481 1.413 80.129 96.085" width="80.129" height="96.085" xmlns="http://www.w3.org/2000/svg">
  <path d="M 82.811 65.634 L 44.505 65.634 C 40.755 65.634 37.706 62.418 37.706 58.462 C 37.706 54.509 40.758 51.29 44.505 51.29 L 82.811 51.29 C 86.56 51.29 89.61 54.509 89.61 58.462 C 89.61 62.418 86.555 65.634 82.811 65.634 Z M 44.505 55.298 C 42.963 55.298 41.712 56.716 41.712 58.462 C 41.712 60.21 42.963 61.628 44.505 61.628 L 82.811 61.628 C 84.352 61.628 85.604 60.21 85.604 58.462 C 85.604 56.716 84.352 55.298 82.811 55.298 L 44.505 55.298 Z" style="fill: rgb(123, 137, 168); stroke: rgb(123, 137, 168);"/>
  <path d="M 48.014 97.498 C 41.589 97.498 36.088 95.363 32.109 91.323 L 15.69 74.573 C 11.689 70.502 9.481 64.721 9.481 58.295 C 9.481 51.973 11.689 46.243 15.698 42.169 L 53.836 3.383 C 56.48 0.698 61.165 0.77 63.876 3.527 C 66.657 6.355 66.722 10.894 64.013 13.638 L 56.954 20.914 C 59.561 21.98 61.932 23.559 63.921 25.558 L 73.788 35.693 C 76.479 38.435 76.412 42.966 73.631 45.795 C 72.282 47.189 70.427 47.978 68.488 47.978 C 66.629 47.978 64.898 47.252 63.604 45.94 L 53.443 35.954 C 52.157 34.644 50.323 33.992 47.966 33.992 C 45.537 33.992 43.684 34.621 42.457 35.87 L 26.164 52.673 C 24.792 54.072 24.076 56.003 24.076 58.282 C 24.076 60.594 24.834 62.693 26.155 64.036 L 42.513 80.791 C 43.775 82.077 45.615 82.73 47.971 82.73 C 50.326 82.73 52.157 82.077 53.42 80.791 L 63.633 70.754 C 64.909 69.461 66.657 68.731 68.476 68.739 L 68.485 68.739 C 70.418 68.739 72.245 69.517 73.636 70.927 C 76.412 73.751 76.479 78.286 73.78 81.031 L 63.935 91.147 C 59.905 95.245 54.256 97.498 48.014 97.498 Z M 58.72 5.35 C 57.958 5.345 57.225 5.647 56.688 6.191 L 18.551 44.978 C 15.286 48.299 13.487 53.026 13.487 58.295 C 13.487 63.666 15.286 68.451 18.555 71.769 L 18.561 71.772 L 34.974 88.519 C 38.175 91.768 42.686 93.492 48.014 93.492 C 53.176 93.492 57.806 91.668 61.067 88.354 L 70.911 78.239 C 72.093 77.033 72.03 75.018 70.775 73.743 C 70.175 73.119 69.349 72.763 68.479 72.754 L 68.476 72.754 C 67.718 72.754 66.997 73.054 66.465 73.591 L 56.252 83.628 C 54.261 85.659 51.388 86.745 47.966 86.745 C 44.544 86.745 41.667 85.659 39.65 83.603 L 23.287 66.848 C 21.208 64.738 20.061 61.696 20.061 58.291 C 20.061 54.989 21.208 52.001 23.292 49.88 L 39.586 33.078 C 41.601 31.026 44.418 29.989 47.963 29.989 C 51.384 29.989 54.256 31.074 56.271 33.127 L 66.431 43.11 C 66.968 43.668 67.71 43.979 68.485 43.976 C 69.349 43.972 70.175 43.615 70.77 42.991 C 72.025 41.713 72.093 39.697 70.919 38.499 L 61.059 28.37 C 58.828 26.127 56.016 24.549 52.935 23.816 C 52.233 23.651 51.609 23.111 51.405 22.417 C 51.201 21.725 51.321 20.963 51.822 20.446 L 61.136 10.838 C 62.329 9.629 62.265 7.614 61.011 6.336 C 60.41 5.711 59.585 5.358 58.72 5.35 Z" style="fill: rgb(123, 137, 168); stroke: rgb(123, 137, 168);"/>
</svg>