<?xml version="1.0" encoding="utf-8"?>
<svg viewBox="0 0 1000 1000" xmlns="http://www.w3.org/2000/svg">
  <defs>
    <clipPath id="clip0_505_2">
      <rect width="789" height="789" rx="394.5" fill="white"/>
    </clipPath>
  </defs>
  <g transform="matrix(1.241597, 0, 0, 1.241597, -1362.39563, -120.798553)" style="">
    <g>
      <g clip-path="url(#clip0_505_2)" transform="matrix(1, 0, 0, 1, 1105.5, 105.500023)">
        <rect width="789" height="789" rx="394.5" fill="#C1E5FF"/>
        <path d="M540.798 116C299.063 280.215 87.8236 419.5 108.386 494C139.299 606 632 236 684.386 338C725.988 419 60 789 60 789" stroke="#00c7ff" stroke-width="50"/>
        <circle cx="601.297" cy="75" r="25" fill="#00c7ff"/>
        <circle cx="539.297" cy="117" r="25" fill="#00c7ff"/>
        <circle cx="390" cy="394" r="250" fill="white"/>
        <path d="M109 494.991C139.913 606.991 632.613 236.991 685 338.991" stroke="#00c7ff" stroke-width="50"/>
      </g>
      <path d="M 1458.789 521.209 L 1378.68 374.149 L 1470.399 374.149 L 1500.198 428.716 L 1529.61 374.149 L 1621.329 374.149 L 1541.22 521.209 L 1541.22 632.278 L 1458.789 632.278 Z M 1505.229 601.318 L 1505.229 508.825 L 1561.731 405.109 L 1549.734 405.109 L 1500.198 496.828 L 1450.275 405.109 L 1438.665 405.109 L 1494.78 508.825 L 1494.78 601.318 Z" style="white-space: pre;"/>
    </g>
  </g>
</svg>