<?xml version="1.0" encoding="utf-8"?>
<svg viewBox="0 0 3000 1000" xmlns="http://www.w3.org/2000/svg">
  <g transform="matrix(1, 0, 0, 1, 48.538425, 53.216297)">
    <path d="M 1080.698 348.72 L 1013.046 479.568 L 1013.046 544.157 L 965.44 544.157 L 965.44 479.568 L 897.789 348.72 L 951.798 348.72 L 989.661 430.57 L 1027.245 348.72 Z" style="fill: rgb(255, 255, 255); white-space: pre;"/>
    <path d="M 1090.432 466.205 Q 1090.432 442.263 1099.48 424.167 Q 1108.528 406.071 1124.119 396.327 Q 1139.709 386.583 1158.919 386.583 Q 1175.344 386.583 1187.733 393.264 Q 1200.122 399.946 1206.803 410.803 L 1206.803 388.81 L 1254.41 388.81 L 1254.41 544.157 L 1206.803 544.157 L 1206.803 522.163 Q 1199.843 533.021 1187.455 539.703 Q 1175.066 546.384 1158.64 546.384 Q 1139.709 546.384 1124.119 536.501 Q 1108.528 526.618 1099.48 508.383 Q 1090.432 490.147 1090.432 466.205 Z M 1206.803 466.483 Q 1206.803 448.666 1196.92 438.365 Q 1187.037 428.064 1172.839 428.064 Q 1158.64 428.064 1148.757 438.226 Q 1138.874 448.387 1138.874 466.205 Q 1138.874 484.023 1148.757 494.463 Q 1158.64 504.903 1172.839 504.903 Q 1187.037 504.903 1196.92 494.602 Q 1206.803 484.301 1206.803 466.483 Z" style="fill: rgb(255, 255, 255); white-space: pre;"/>
    <path d="M 1352.126 546.384 Q 1331.803 546.384 1315.934 539.424 Q 1300.065 532.464 1290.878 520.354 Q 1281.691 508.243 1280.577 493.21 L 1327.627 493.21 Q 1328.462 501.283 1335.143 506.295 Q 1341.825 511.306 1351.569 511.306 Q 1360.478 511.306 1365.35 507.826 Q 1370.222 504.346 1370.222 498.778 Q 1370.222 492.096 1363.262 488.895 Q 1356.302 485.693 1340.711 481.795 Q 1324.007 477.898 1312.871 473.583 Q 1301.735 469.267 1293.662 459.941 Q 1285.588 450.615 1285.588 434.746 Q 1285.588 421.383 1292.966 410.386 Q 1300.343 399.389 1314.681 392.986 Q 1329.019 386.583 1348.785 386.583 Q 1378.017 386.583 1394.86 401.059 Q 1411.703 415.536 1414.209 439.479 L 1370.222 439.479 Q 1369.108 431.405 1363.123 426.672 Q 1357.137 421.939 1347.393 421.939 Q 1339.041 421.939 1334.587 425.141 Q 1330.132 428.343 1330.132 433.911 Q 1330.132 440.592 1337.231 443.933 Q 1344.331 447.274 1359.364 450.615 Q 1376.625 455.069 1387.483 459.384 Q 1398.34 463.699 1406.553 473.304 Q 1414.766 482.909 1415.044 499.056 Q 1415.044 512.698 1407.388 523.416 Q 1399.732 534.135 1385.395 540.259 Q 1371.057 546.384 1352.126 546.384 Z" style="fill: rgb(255, 255, 255); white-space: pre;"/>
    <path d="M 1539.764 387.139 Q 1566.49 387.139 1582.638 404.818 Q 1598.785 422.496 1598.785 453.399 L 1598.785 544.157 L 1551.457 544.157 L 1551.457 459.802 Q 1551.457 444.211 1543.383 435.581 Q 1535.31 426.951 1521.668 426.951 Q 1508.026 426.951 1499.953 435.581 Q 1491.879 444.211 1491.879 459.802 L 1491.879 544.157 L 1444.273 544.157 L 1444.273 338.141 L 1491.879 338.141 L 1491.879 409.69 Q 1499.118 399.389 1511.646 393.264 Q 1524.174 387.139 1539.764 387.139 Z" style="fill: rgb(255, 255, 255); white-space: pre;"/>
    <path d="M 1702.643 546.384 Q 1679.814 546.384 1661.579 536.64 Q 1643.343 526.896 1632.903 508.8 Q 1622.463 490.704 1622.463 466.483 Q 1622.463 442.541 1633.043 424.306 Q 1643.622 406.071 1661.996 396.327 Q 1680.371 386.583 1703.199 386.583 Q 1726.028 386.583 1744.403 396.327 Q 1762.777 406.071 1773.356 424.306 Q 1783.935 442.541 1783.935 466.483 Q 1783.935 490.426 1773.217 508.661 Q 1762.499 526.896 1743.985 536.64 Q 1725.471 546.384 1702.643 546.384 Z M 1702.643 505.181 Q 1716.284 505.181 1725.889 495.159 Q 1735.494 485.136 1735.494 466.483 Q 1735.494 447.831 1726.167 437.808 Q 1716.841 427.786 1703.199 427.786 Q 1689.279 427.786 1680.092 437.669 Q 1670.905 447.552 1670.905 466.483 Q 1670.905 485.136 1679.953 495.159 Q 1689.001 505.181 1702.643 505.181 Z" style="fill: rgb(255, 255, 255); white-space: pre;"/>
    <path d="M 1799.792 466.205 Q 1799.792 442.263 1808.84 424.167 Q 1817.888 406.071 1833.478 396.327 Q 1849.068 386.583 1868.278 386.583 Q 1883.59 386.583 1896.257 392.986 Q 1908.924 399.389 1916.163 410.247 L 1916.163 338.141 L 1963.769 338.141 L 1963.769 544.157 L 1916.163 544.157 L 1916.163 521.885 Q 1909.481 533.021 1897.092 539.703 Q 1884.704 546.384 1868.278 546.384 Q 1849.068 546.384 1833.478 536.501 Q 1817.888 526.618 1808.84 508.383 Q 1799.792 490.147 1799.792 466.205 Z M 1916.163 466.483 Q 1916.163 448.666 1906.28 438.365 Q 1896.396 428.064 1882.198 428.064 Q 1868 428.064 1858.116 438.226 Q 1848.233 448.387 1848.233 466.205 Q 1848.233 484.023 1858.116 494.463 Q 1868 504.903 1882.198 504.903 Q 1896.396 504.903 1906.28 494.602 Q 1916.163 484.301 1916.163 466.483 Z" style="fill: rgb(255, 255, 255); white-space: pre;"/>
    <path d="M 2093.795 387.139 Q 2120.522 387.139 2136.669 404.818 Q 2152.816 422.496 2152.816 453.399 L 2152.816 544.157 L 2105.488 544.157 L 2105.488 459.802 Q 2105.488 444.211 2097.414 435.581 Q 2089.341 426.951 2075.699 426.951 Q 2062.058 426.951 2053.984 435.581 Q 2045.91 444.211 2045.91 459.802 L 2045.91 544.157 L 1998.304 544.157 L 1998.304 338.141 L 2045.91 338.141 L 2045.91 409.69 Q 2053.149 399.389 2065.677 393.264 Q 2078.205 387.139 2093.795 387.139 Z" style="fill: rgb(255, 255, 255); white-space: pre;"/>
    <path d="M 2176.479 466.205 Q 2176.479 442.263 2185.527 424.167 Q 2194.575 406.071 2210.165 396.327 Q 2225.756 386.583 2244.965 386.583 Q 2261.391 386.583 2273.78 393.264 Q 2286.169 399.946 2292.85 410.803 L 2292.85 388.81 L 2340.457 388.81 L 2340.457 544.157 L 2292.85 544.157 L 2292.85 522.163 Q 2285.89 533.021 2273.501 539.703 Q 2261.113 546.384 2244.687 546.384 Q 2225.756 546.384 2210.165 536.501 Q 2194.575 526.618 2185.527 508.383 Q 2176.479 490.147 2176.479 466.205 Z M 2292.85 466.483 Q 2292.85 448.666 2282.967 438.365 Q 2273.084 428.064 2258.885 428.064 Q 2244.687 428.064 2234.804 438.226 Q 2224.921 448.387 2224.921 466.205 Q 2224.921 484.023 2234.804 494.463 Q 2244.687 504.903 2258.885 504.903 Q 2273.084 504.903 2282.967 494.602 Q 2292.85 484.301 2292.85 466.483 Z" style="fill: rgb(255, 255, 255); white-space: pre;"/>
    <path d="M 2469.632 387.139 Q 2496.915 387.139 2513.201 404.818 Q 2529.488 422.496 2529.488 453.399 L 2529.488 544.157 L 2482.16 544.157 L 2482.16 459.802 Q 2482.16 444.211 2474.086 435.581 Q 2466.013 426.951 2452.371 426.951 Q 2438.729 426.951 2430.656 435.581 Q 2422.582 444.211 2422.582 459.802 L 2422.582 544.157 L 2374.976 544.157 L 2374.976 388.81 L 2422.582 388.81 L 2422.582 409.411 Q 2429.821 399.111 2442.07 393.125 Q 2454.32 387.139 2469.632 387.139 Z" style="fill: rgb(255, 255, 255); white-space: pre;"/>
    <path d="M 2770.576 411.639 Q 2770.576 428.621 2762.781 442.68 Q 2754.986 456.739 2738.839 465.37 Q 2722.691 474 2698.749 474 L 2669.239 474 L 2669.239 544.157 L 2621.632 544.157 L 2621.632 348.72 L 2698.749 348.72 Q 2722.135 348.72 2738.282 356.794 Q 2754.429 364.867 2762.503 379.066 Q 2770.576 393.264 2770.576 411.639 Z M 2695.13 436.138 Q 2708.771 436.138 2715.453 429.735 Q 2722.135 423.331 2722.135 411.639 Q 2722.135 399.946 2715.453 393.543 Q 2708.771 387.139 2695.13 387.139 L 2669.239 387.139 L 2669.239 436.138 L 2695.13 436.138 Z" style="fill: rgb(255, 255, 255); white-space: pre;"/>
    <path d="M 2817.623 546.384 Q 2805.095 546.384 2797.16 539.007 Q 2789.226 531.629 2789.226 520.771 Q 2789.226 509.635 2797.16 502.119 Q 2805.095 494.602 2817.623 494.602 Q 2829.872 494.602 2837.807 502.119 Q 2845.741 509.635 2845.741 520.771 Q 2845.741 531.629 2837.807 539.007 Q 2829.872 546.384 2817.623 546.384 Z" style="fill: rgb(255, 255, 255); white-space: pre;"/>
    <g transform="matrix(1.143827, 0, 0, 1.143827, -1328.109619, -125.129776)" style="">
      <path d="M 1652.479 196 C 1410.744 360.215 1199.505 499.5 1220.067 574 C 1250.98 686 1743.681 316 1796.067 418 C 1837.669 499 1289.181 802.5 1289.181 802.5" stroke="#00c7ff" stroke-width="50"/>
      <circle cx="1712.979" cy="155" r="25" fill="#00c7ff"/>
      <circle cx="1650.979" cy="197" r="25" fill="#00c7ff"/>
      <circle cx="1288.681" cy="802.78" r="25" fill="#00c7ff"/>
      <circle cx="1226.681" cy="845" r="25" fill="#00c7ff"/>
      <circle cx="1508.681" cy="474" r="250" fill="white"/>
      <path d="M 1220.681 574.991 C 1251.594 686.991 1744.294 316.991 1796.681 418.991" stroke="#00c7ff" stroke-width="50"/>
      <path d="M 1453.154 489.972 L 1370.416 338.086 L 1465.145 338.086 L 1495.922 394.444 L 1526.299 338.086 L 1621.028 338.086 L 1538.29 489.972 L 1538.29 604.686 L 1453.154 604.686 Z M 1501.118 572.71 L 1501.118 477.182 L 1559.474 370.062 L 1547.083 370.062 L 1495.922 464.791 L 1444.361 370.062 L 1432.37 370.062 L 1490.326 477.182 L 1490.326 572.71 Z" style="fill: rgb(6, 6, 6); white-space: pre;"/>
    </g>
  </g>
</svg>

