<?xml version="1.0" encoding="utf-8"?>
<svg viewBox="0 0 1000 1000" xmlns="http://www.w3.org/2000/svg">
  <path d="M 702.258 96.754 C 381.605 314.58 101.404 499.336 128.679 598.159 C 169.684 746.722 823.235 255.929 892.723 391.23 C 947.907 498.674 220.355 901.256 220.355 901.256" stroke="#00c7ff" stroke-width="50" style=""/>
  <circle cx="782.51" cy="42.369" r="33.162" fill="#00c7ff" style=""/>
  <circle cx="700.269" cy="98.08" r="33.162" fill="#00c7ff" style=""/>
  <circle cx="219.693" cy="901.627" r="33.162" fill="#00c7ff" style=""/>
  <circle cx="137.452" cy="957.631" r="33.162" fill="#00c7ff" style=""/>
  <circle cx="511.516" cy="465.511" r="331.616" fill="white" style=""/>
  <path d="M 129.493 599.473 C 170.498 748.037 824.048 257.244 893.537 392.543" stroke="#00c7ff" stroke-width="50" style=""/>
  <path d="M 443.784 527.92 L 334.509 327.318 L 459.621 327.318 L 500.27 401.752 L 540.39 327.318 L 665.502 327.318 L 556.227 527.92 L 556.227 679.427 L 443.784 679.427 Z M 507.132 637.195 L 507.132 511.027 L 584.206 369.55 L 567.841 369.55 L 500.27 494.662 L 432.17 369.55 L 416.333 369.55 L 492.879 511.027 L 492.879 637.195 Z" style="white-space: pre;"/>
</svg>